<svg width="14" height="18" viewBox="0 0 14 18" fill="none" xmlns="http://www.w3.org/2000/svg">
<path d="M13.8569 1.58742C13.8569 0.907422 13.3069 0.357422 12.6219 0.357422H2.09194C1.76526 0.357419 1.45189 0.486848 1.22042 0.717375C0.98896 0.947903 0.858261 1.26075 0.856938 1.58742V16.6274C0.856361 16.8332 0.907396 17.0357 1.00537 17.2166C1.10335 17.3975 1.24513 17.551 1.41775 17.6629C1.59037 17.7748 1.7883 17.8417 1.99343 17.8573C2.19857 17.873 2.40435 17.8369 2.59194 17.7524L7.69194 15.4874L13.1219 13.0724C13.5719 12.8724 13.8569 12.4374 13.8569 11.9474V1.58742Z" fill="url(#paint0_linear_4003_659)"/>
<defs>
<linearGradient id="paint0_linear_4003_659" x1="7.35694" y1="3.53242" x2="7.35694" y2="17.8724" gradientUnits="userSpaceOnUse">
<stop stop-color="#FFD748"/>
<stop offset="1" stop-color="#FFC148"/>
</linearGradient>
</defs>
</svg>
