<svg width="49" height="33" viewBox="0 0 49 33" fill="none" xmlns="http://www.w3.org/2000/svg">
<rect x="0.142578" y="0.142578" width="48" height="32" rx="16" fill="white" fill-opacity="0.2"/>
<path d="M31.1426 19.1426H17.1426C16.5903 19.1426 16.1426 19.5903 16.1426 20.1426C16.1426 20.6949 16.5903 21.1426 17.1426 21.1426H31.1426C31.6949 21.1426 32.1426 20.6949 32.1426 20.1426C32.1426 19.5903 31.6949 19.1426 31.1426 19.1426Z" fill="white"/>
<path d="M31.1426 15.1426H17.1426C16.5903 15.1426 16.1426 15.5903 16.1426 16.1426C16.1426 16.6949 16.5903 17.1426 17.1426 17.1426H31.1426C31.6949 17.1426 32.1426 16.6949 32.1426 16.1426C32.1426 15.5903 31.6949 15.1426 31.1426 15.1426Z" fill="white"/>
<path d="M31.1426 11.1426H17.1426C16.5903 11.1426 16.1426 11.5903 16.1426 12.1426C16.1426 12.6949 16.5903 13.1426 17.1426 13.1426H31.1426C31.6949 13.1426 32.1426 12.6949 32.1426 12.1426C32.1426 11.5903 31.6949 11.1426 31.1426 11.1426Z" fill="white"/>
</svg>
