<svg width="541" height="560" viewBox="0 0 541 560" fill="none" xmlns="http://www.w3.org/2000/svg">
<path d="M38.127 198.857V140.857C38.127 127.524 44.7936 120.857 58.127 120.857H104.127" stroke="url(#paint0_linear_4003_461)" stroke-width="2" stroke-dasharray="136.46 136.46"/>
<rect x="17.3472" y="199.348" width="41.55" height="41.55" rx="7.5" fill="#F6F9FC"/>
<rect x="17.3472" y="199.348" width="41.55" height="41.55" rx="7.5" stroke="#C4CCD8"/>
<path d="M43.6899 215.305L39.5798 227.858L39.5695 227.905L39.5569 227.952L39.5417 227.996C39.5378 228.01 39.5332 228.023 39.528 228.036L39.4956 228.114L39.4579 228.19L39.4457 228.212L39.4033 228.283L39.3558 228.35L39.3406 228.37L39.2875 228.433L39.2308 228.493L39.2171 228.504C39.1773 228.543 39.1345 228.579 39.0892 228.612L39.0148 228.659L38.9367 228.699L38.9215 228.709L38.8462 228.742L38.7691 228.772H38.7463L38.6663 228.795C38.6525 228.798 38.6431 228.781 38.6521 228.771L38.6672 228.753C38.8616 228.504 38.9517 228.188 38.9157 227.872C38.8792 227.553 38.7051 227.347 38.454 227.162L38.3837 227.112L33.2457 223.375L33.1797 223.323C33.1562 223.304 33.1336 223.283 33.1119 223.262C33.1073 223.257 33.1023 223.252 33.0973 223.247C33.0823 223.232 33.0679 223.217 33.0539 223.201L33.0348 223.179C33.0235 223.166 33.0126 223.153 33.0021 223.139C32.9942 223.129 32.9863 223.118 32.9785 223.108L32.9653 223.089L32.9526 223.07C32.9456 223.06 32.9387 223.049 32.9318 223.038C32.9238 223.025 32.9161 223.013 32.9086 223C32.9036 222.991 32.8986 222.982 32.8938 222.973C32.8848 222.956 32.8763 222.94 32.8681 222.923L32.8556 222.896C32.8491 222.881 32.8427 222.867 32.8367 222.852C32.8326 222.841 32.8287 222.831 32.8249 222.821C32.8182 222.803 32.8119 222.785 32.806 222.767C32.8035 222.759 32.8012 222.752 32.7989 222.744C32.7939 222.727 32.7892 222.71 32.7848 222.693L32.7773 222.661C32.7739 222.646 32.7708 222.631 32.7681 222.616L32.7622 222.581C32.7553 222.536 32.7509 222.491 32.749 222.445C32.7476 222.409 32.7477 222.373 32.7495 222.336C32.7525 222.28 32.7589 222.226 32.7691 222.172C32.772 222.157 32.7752 222.142 32.7787 222.126C32.7813 222.115 32.7841 222.104 32.7871 222.092L32.7985 222.051C32.8027 222.037 32.8071 222.023 32.8119 222.009L32.8151 222C32.8322 221.879 32.8672 221.759 32.9209 221.645L32.9647 221.56L36.4847 215.286M43.6899 215.305L43.692 215.304C43.8549 214.804 43.6759 214.256 43.2492 213.948L40.0758 211.665C39.7984 211.465 39.4495 211.393 39.1155 211.465L39.0256 211.488C38.7301 211.576 38.478 211.773 38.3228 212.043L36.4825 215.285M43.6899 215.305L43.6975 215.286" stroke="#C4CCD8" stroke-width="1.83333"/>
<path d="M46.1014 215.285H30.1435C29.4758 215.285 28.9346 215.826 28.9346 216.494V227.616C28.9346 228.284 29.4758 228.825 30.1435 228.825H46.1014C46.769 228.825 47.3103 228.284 47.3103 227.616V216.494C47.3103 215.826 46.769 215.285 46.1014 215.285Z" stroke="#C4CCD8" stroke-width="1.83333"/>
<path d="M38.127 388.857V324.857C38.127 311.524 44.7936 304.857 58.127 304.857H104.127" stroke="url(#paint1_linear_4003_461)" stroke-width="2" stroke-dasharray="142.46 142.46"/>
<g filter="url(#filter0_dd_4003_461)">
<rect x="14.127" y="386.127" width="48" height="48" rx="8" fill="white"/>
<path d="M34.016 399.223C32.1923 399.338 30.4835 400.153 29.2458 401.497C28.008 402.842 27.3368 404.612 27.3719 406.439C27.4071 408.266 28.1459 410.009 29.4344 411.305C30.723 412.6 32.4618 413.349 34.2886 413.394H40.041C40.788 413.394 41.3932 412.794 41.3932 412.042V406.311C41.3948 405.355 41.2028 404.409 40.829 403.529C40.4551 402.649 39.907 401.855 39.2177 401.192C38.5284 400.53 37.7122 400.014 36.8182 399.676C35.9243 399.337 34.971 399.183 34.016 399.223Z" fill="url(#paint2_linear_4003_461)"/>
<path d="M42.2273 421.021C44.051 420.905 45.7598 420.09 46.9976 418.746C48.2353 417.402 48.9066 415.632 48.8714 413.805C48.8363 411.978 48.0974 410.235 46.8089 408.939C45.5203 407.643 43.7815 406.895 41.9547 406.85H36.2023C35.8437 406.85 35.4998 406.992 35.2462 407.246C34.9926 407.499 34.8501 407.843 34.8501 408.202V413.932C34.8485 414.888 35.0405 415.835 35.4144 416.714C35.7883 417.594 36.3364 418.389 37.0256 419.051C37.7149 419.714 38.5311 420.229 39.4251 420.568C40.3191 420.906 41.2723 421.06 42.2273 421.021Z" fill="#0073E6"/>
<path d="M41.3931 406.851V412.042C41.3931 412.401 41.2506 412.745 40.997 412.998C40.7435 413.252 40.3995 413.394 40.0409 413.394H34.8501V408.203C34.8494 407.859 34.9798 407.528 35.2148 407.277C35.4498 407.026 35.7718 406.873 36.1151 406.851L36.2023 406.846H41.3931V406.851Z" fill="url(#paint3_linear_4003_461)"/>
</g>
<path d="M503.597 146.387V156.856C503.597 170.19 496.93 176.857 483.596 176.857H437.577" stroke="url(#paint4_linear_4003_461)" stroke-width="2" stroke-dasharray="88.95 88.95"/>
<rect x="482.817" y="104.348" width="41.55" height="41.55" rx="7.5" fill="#F6F9FC"/>
<rect x="482.817" y="104.348" width="41.55" height="41.55" rx="7.5" stroke="#C4CCD8"/>
<path d="M507.944 122.461C507.944 122.288 507.909 122.117 507.839 121.959L505.943 117.634C505.747 117.188 505.311 116.9 504.829 116.9H495.14C494.467 116.9 493.921 117.454 493.921 118.136V126.787C493.921 127.469 494.467 128.023 495.14 128.023H504.829C505.311 128.023 505.747 127.735 505.943 127.289L507.839 122.964C507.909 122.805 507.944 122.634 507.944 122.461Z" stroke="#C4CCD8" stroke-width="1.83333"/>
<path d="M499.24 127.782C499.24 127.955 499.276 128.126 499.345 128.284L501.242 132.609C501.437 133.055 501.874 133.343 502.356 133.343H512.044C512.718 133.343 513.264 132.79 513.264 132.107V123.457C513.264 122.774 512.718 122.221 512.044 122.221H502.356C501.874 122.221 501.437 122.508 501.242 122.954L499.345 127.28C499.276 127.438 499.24 127.609 499.24 127.782Z" stroke="#C4CCD8" stroke-width="1.83333"/>
<path d="M503.597 303.857V196.857C503.597 183.524 496.93 176.857 483.596 176.857H437.577" stroke="url(#paint5_linear_4003_461)" stroke-width="2" stroke-dasharray="185.48 185.48"/>
<rect x="482.817" y="304.348" width="41.55" height="41.55" rx="7.5" fill="#F6F9FC"/>
<rect x="482.817" y="304.348" width="41.55" height="41.55" rx="7.5" stroke="#C4CCD8"/>
<path d="M505.505 322.243L500.793 323.269L494.903 324.49C494.314 324.636 493.921 325.124 493.921 325.71V333.573C493.921 334.256 494.461 334.794 495.148 334.794H506.977V323.464C506.977 322.683 506.29 322.097 505.505 322.243Z" stroke="#C4CCD8" stroke-width="1.83333"/>
<path d="M511.742 315.474L501.189 317.701C500.6 317.846 500.208 318.33 500.208 318.912V323.318V334.794H512.037C512.724 334.697 513.264 334.165 513.264 333.487V316.684C513.264 315.909 512.528 315.328 511.742 315.474Z" stroke="#C4CCD8" stroke-width="1.83333"/>
<g filter="url(#filter1_dd_4003_461)">
<rect x="95.8569" y="30.8574" width="347" height="213" rx="14" fill="white" fill-opacity="0.01" shape-rendering="crispEdges"/>
</g>
<mask id="mask0_4003_461" style="mask-type:luminance" maskUnits="userSpaceOnUse" x="94" y="29" width="350" height="217">
<path d="M429.201 29.8574H109.513C101.419 29.8574 94.8569 36.4192 94.8569 44.5136V230.463C94.8569 238.558 101.419 245.119 109.513 245.119H429.201C437.295 245.119 443.857 238.558 443.857 230.463V44.5136C443.857 36.4192 437.295 29.8574 429.201 29.8574Z" fill="white"/>
</mask>
<g mask="url(#mask0_4003_461)">
<path d="M429.683 29.8574H109.031C101.203 29.8574 94.8569 36.2032 94.8569 44.0311V230.946C94.8569 238.774 101.203 245.119 109.031 245.119H429.683C437.511 245.119 443.857 238.774 443.857 230.946V44.0311C443.857 36.2032 437.511 29.8574 429.683 29.8574Z" fill="black"/>
<mask id="mask1_4003_461" style="mask-type:alpha" maskUnits="userSpaceOnUse" x="94" y="29" width="350" height="217">
<path d="M443.857 29.8574H94.8569V245.119H443.857V29.8574Z" fill="white"/>
</mask>
<g mask="url(#mask1_4003_461)">
<mask id="mask2_4003_461" style="mask-type:luminance" maskUnits="userSpaceOnUse" x="358" y="186" width="72" height="45">
<path d="M429.771 186.857H358.665V230.801H429.771V186.857Z" fill="white"/>
</mask>
<g mask="url(#mask2_4003_461)">
<path d="M403.836 191.555H384.603V226.105H403.836V191.555Z" fill="#F16122"/>
<path d="M385.828 208.836C385.828 201.826 389.103 195.582 394.218 191.554C390.483 188.613 385.758 186.857 380.643 186.857C368.504 186.857 358.665 196.697 358.665 208.836C358.665 220.975 368.504 230.815 380.643 230.815C385.772 230.815 390.483 229.058 394.218 226.118C389.103 222.09 385.828 215.846 385.828 208.836Z" fill="#ED1C24"/>
<path d="M427.664 222.454V221.744H427.943V221.604H427.218V221.744H427.497V222.454H427.65H427.664ZM429.072 222.454V221.604H428.849L428.599 222.189L428.347 221.604H428.124V222.454H428.278V221.813L428.515 222.37H428.682L428.919 221.813V222.454H429.072Z" fill="#F99F1C"/>
<path d="M429.771 208.836C429.771 220.975 419.931 230.815 407.792 230.815C402.663 230.815 397.952 229.058 394.217 226.118C399.332 222.09 402.607 215.846 402.607 208.836C402.607 201.826 399.332 195.582 394.217 191.554C397.952 188.613 402.677 186.857 407.792 186.857C419.931 186.857 429.771 196.697 429.771 208.836Z" fill="#F99F1C"/>
</g>
<path d="M362.835 164.002C363.294 164.002 363.724 164.085 364.113 164.252C364.516 164.419 364.849 164.655 365.113 164.988L364.252 165.905C364.029 165.696 363.808 165.544 363.571 165.432C363.335 165.321 363.071 165.266 362.779 165.266C362.529 165.266 362.28 165.308 362.057 165.405C361.835 165.502 361.641 165.627 361.487 165.808C361.321 165.974 361.196 166.183 361.112 166.433C361.015 166.669 360.974 166.933 360.974 167.224C360.974 167.516 361.015 167.78 361.112 168.017C361.21 168.253 361.335 168.461 361.487 168.641C361.654 168.808 361.835 168.947 362.057 169.044C362.28 169.141 362.516 169.183 362.779 169.183C363.071 169.183 363.349 169.127 363.599 169.003C363.849 168.877 364.085 168.725 364.28 168.544L365.099 169.461C364.822 169.781 364.488 170.03 364.085 170.197C363.697 170.364 363.266 170.447 362.807 170.447C362.321 170.447 361.877 170.364 361.487 170.197C361.085 170.03 360.752 169.808 360.473 169.517C360.196 169.225 359.974 168.891 359.821 168.502C359.668 168.114 359.585 167.683 359.585 167.224C359.585 166.766 359.668 166.336 359.821 165.947C359.974 165.558 360.196 165.21 360.473 164.933C360.752 164.641 361.099 164.419 361.487 164.252C361.89 164.085 362.321 164.002 362.807 164.002H362.835Z" fill="white"/>
<path d="M369.335 164.002C369.808 164.002 370.252 164.085 370.655 164.252C371.058 164.419 371.405 164.641 371.696 164.933C371.988 165.224 372.225 165.558 372.391 165.947C372.558 166.336 372.641 166.766 372.641 167.224C372.641 167.683 372.558 168.114 372.391 168.502C372.225 168.891 371.988 169.239 371.696 169.517C371.405 169.808 371.058 170.03 370.655 170.197C370.252 170.364 369.821 170.447 369.335 170.447C368.849 170.447 368.419 170.364 368.016 170.197C367.613 170.03 367.266 169.808 366.974 169.517C366.683 169.225 366.446 168.891 366.293 168.502C366.127 168.114 366.044 167.683 366.044 167.224C366.044 166.766 366.127 166.336 366.293 165.947C366.46 165.558 366.683 165.21 366.974 164.933C367.266 164.641 367.613 164.419 368.016 164.252C368.419 164.085 368.863 164.002 369.335 164.002ZM369.335 165.266C369.058 165.266 368.807 165.308 368.571 165.405C368.335 165.502 368.141 165.627 367.96 165.808C367.793 165.974 367.654 166.183 367.557 166.433C367.46 166.669 367.405 166.933 367.405 167.224C367.405 167.516 367.46 167.78 367.557 168.017C367.654 168.253 367.793 168.461 367.96 168.641C368.127 168.808 368.335 168.947 368.571 169.044C368.807 169.141 369.058 169.183 369.335 169.183C369.613 169.183 369.863 169.141 370.099 169.044C370.335 168.947 370.53 168.808 370.71 168.641C370.877 168.475 371.016 168.266 371.113 168.017C371.21 167.78 371.266 167.516 371.266 167.224C371.266 166.933 371.21 166.669 371.113 166.433C371.016 166.197 370.877 165.988 370.71 165.808C370.543 165.627 370.335 165.502 370.099 165.405C369.863 165.308 369.613 165.266 369.335 165.266Z" fill="white"/>
<path d="M381.85 164.002C382.211 164.002 382.545 164.058 382.85 164.183C383.156 164.307 383.42 164.474 383.642 164.682C383.864 164.891 384.031 165.155 384.156 165.447C384.281 165.738 384.337 166.071 384.337 166.433V170.28H382.989V166.877C382.989 166.363 382.865 165.961 382.614 165.683C382.364 165.405 382.017 165.266 381.559 165.266C381.337 165.266 381.142 165.308 380.947 165.377C380.753 165.447 380.586 165.544 380.447 165.683C380.308 165.822 380.197 165.988 380.1 166.197C380.017 166.405 379.975 166.627 379.975 166.891V170.28H378.628V166.877C378.628 166.363 378.503 165.961 378.253 165.683C378.003 165.405 377.655 165.266 377.197 165.266C376.975 165.266 376.78 165.308 376.586 165.377C376.392 165.447 376.225 165.544 376.086 165.683C375.947 165.822 375.836 165.988 375.738 166.197C375.655 166.405 375.614 166.627 375.614 166.891V170.28H374.266V164.155H375.599V164.905C375.725 164.725 375.863 164.571 376.017 164.461C376.169 164.35 376.322 164.252 376.489 164.183C376.655 164.113 376.822 164.071 376.988 164.044C377.155 164.016 377.322 164.002 377.475 164.002C377.947 164.002 378.364 164.099 378.725 164.294C379.086 164.488 379.378 164.752 379.586 165.1C379.711 164.877 379.878 164.697 380.059 164.558C380.239 164.419 380.419 164.307 380.628 164.224C380.822 164.141 381.031 164.086 381.239 164.058C381.448 164.03 381.642 164.016 381.836 164.016L381.85 164.002Z" fill="white"/>
<path d="M393.923 164.002C394.284 164.002 394.617 164.058 394.923 164.183C395.228 164.307 395.492 164.474 395.715 164.682C395.937 164.891 396.103 165.155 396.229 165.447C396.353 165.738 396.409 166.071 396.409 166.433V170.28H395.061V166.877C395.061 166.363 394.937 165.961 394.686 165.683C394.437 165.405 394.09 165.266 393.631 165.266C393.409 165.266 393.214 165.308 393.02 165.377C392.825 165.447 392.659 165.544 392.519 165.683C392.381 165.822 392.27 165.988 392.172 166.197C392.089 166.405 392.048 166.627 392.048 166.891V170.28H390.7V166.877C390.7 166.363 390.575 165.961 390.325 165.683C390.075 165.405 389.728 165.266 389.27 165.266C389.047 165.266 388.852 165.308 388.659 165.377C388.464 165.447 388.297 165.544 388.158 165.683C388.019 165.822 387.908 165.988 387.811 166.197C387.728 166.405 387.686 166.627 387.686 166.891V170.28H386.338V164.155H387.672V164.905C387.797 164.725 387.936 164.571 388.089 164.461C388.241 164.35 388.394 164.252 388.561 164.183C388.728 164.113 388.895 164.071 389.061 164.044C389.227 164.016 389.394 164.002 389.547 164.002C390.02 164.002 390.436 164.099 390.798 164.294C391.158 164.488 391.45 164.752 391.659 165.1C391.784 164.877 391.95 164.697 392.131 164.558C392.311 164.419 392.492 164.307 392.7 164.224C392.895 164.141 393.103 164.086 393.312 164.058C393.52 164.03 393.715 164.016 393.908 164.016L393.923 164.002Z" fill="white"/>
<path d="M401.049 164.002C401.479 164.002 401.868 164.085 402.215 164.238C402.576 164.391 402.882 164.613 403.132 164.891C403.382 165.169 403.577 165.516 403.729 165.905C403.868 166.294 403.938 166.738 403.938 167.211C403.938 167.294 403.938 167.377 403.938 167.461C403.938 167.544 403.938 167.627 403.924 167.711H399.395C399.437 167.989 399.521 168.225 399.632 168.419C399.743 168.613 399.882 168.78 400.048 168.905C400.215 169.031 400.396 169.127 400.59 169.183C400.784 169.239 400.993 169.267 401.215 169.267C401.521 169.267 401.826 169.211 402.132 169.1C402.438 168.988 402.73 168.822 402.979 168.628L403.646 169.586C403.271 169.905 402.868 170.128 402.451 170.253C402.035 170.377 401.59 170.447 401.132 170.447C400.674 170.447 400.257 170.377 399.868 170.211C399.479 170.058 399.159 169.836 398.882 169.558C398.604 169.28 398.396 168.933 398.243 168.544C398.09 168.141 398.006 167.711 398.006 167.224C398.006 166.738 398.076 166.308 398.229 165.919C398.381 165.516 398.59 165.183 398.854 164.905C399.118 164.627 399.437 164.405 399.813 164.252C400.188 164.099 400.604 164.016 401.049 164.016V164.002ZM401.021 165.197C400.784 165.197 400.576 165.238 400.382 165.308C400.201 165.377 400.035 165.488 399.909 165.613C399.77 165.752 399.659 165.905 399.576 166.099C399.493 166.28 399.437 166.489 399.395 166.71H402.576C402.507 166.238 402.34 165.863 402.063 165.599C401.799 165.336 401.451 165.197 401.021 165.197Z" fill="white"/>
<path d="M408.701 164.002C408.909 164.002 409.09 164.016 409.256 164.044C409.423 164.071 409.576 164.113 409.729 164.169L409.409 165.488C409.27 165.419 409.103 165.363 408.923 165.321C408.728 165.28 408.562 165.266 408.395 165.266C408.187 165.266 407.993 165.308 407.812 165.377C407.631 165.447 407.478 165.558 407.354 165.696C407.228 165.835 407.131 166.016 407.048 166.21C406.979 166.419 406.936 166.641 406.936 166.905V170.267H405.603V164.155H406.923V164.849C407.131 164.558 407.381 164.335 407.687 164.21C407.993 164.071 408.325 164.002 408.701 164.002Z" fill="white"/>
<path d="M413.605 164.002C414.064 164.002 414.495 164.085 414.884 164.252C415.286 164.419 415.62 164.655 415.883 164.988L415.022 165.905C414.801 165.696 414.578 165.544 414.342 165.432C414.106 165.321 413.842 165.266 413.55 165.266C413.3 165.266 413.05 165.308 412.828 165.405C412.606 165.502 412.411 165.627 412.259 165.808C412.092 165.974 411.967 166.183 411.884 166.433C411.786 166.669 411.744 166.933 411.744 167.224C411.744 167.516 411.786 167.78 411.884 168.017C411.98 168.253 412.105 168.461 412.259 168.641C412.425 168.808 412.606 168.947 412.828 169.044C413.05 169.141 413.286 169.183 413.55 169.183C413.842 169.183 414.119 169.127 414.37 169.003C414.62 168.877 414.856 168.725 415.05 168.544L415.87 169.461C415.592 169.781 415.259 170.03 414.856 170.197C414.467 170.364 414.036 170.447 413.578 170.447C413.092 170.447 412.647 170.364 412.259 170.197C411.856 170.03 411.522 169.808 411.245 169.517C410.966 169.225 410.744 168.891 410.591 168.502C410.439 168.114 410.355 167.683 410.355 167.224C410.355 166.766 410.439 166.336 410.591 165.947C410.744 165.558 410.966 165.21 411.245 164.933C411.522 164.641 411.869 164.419 412.259 164.252C412.661 164.085 413.092 164.002 413.578 164.002H413.605Z" fill="white"/>
<path d="M418.729 170.279H417.382V164.154H418.729V170.279Z" fill="white"/>
<path d="M426.701 170.28H425.368V169.544C425.16 169.822 424.896 170.03 424.577 170.197C424.257 170.364 423.882 170.433 423.451 170.433C423.021 170.433 422.618 170.35 422.256 170.197C421.881 170.044 421.562 169.808 421.285 169.53C421.006 169.239 420.784 168.905 420.631 168.516C420.479 168.127 420.395 167.697 420.395 167.224C420.395 166.752 420.479 166.322 420.631 165.932C420.784 165.544 421.006 165.197 421.285 164.918C421.562 164.627 421.881 164.405 422.256 164.252C422.631 164.099 423.021 164.016 423.451 164.016C423.882 164.016 424.271 164.099 424.577 164.266C424.896 164.432 425.16 164.641 425.368 164.918V164.183H426.701V170.28ZM423.604 165.252C423.312 165.252 423.062 165.308 422.826 165.405C422.604 165.516 422.41 165.655 422.243 165.821C422.09 166.002 421.965 166.21 421.881 166.446C421.798 166.682 421.757 166.933 421.757 167.211C421.757 167.488 421.798 167.739 421.881 167.975C421.965 168.21 422.09 168.419 422.243 168.6C422.395 168.78 422.59 168.919 422.826 169.016C423.049 169.113 423.312 169.169 423.604 169.169C423.896 169.169 424.132 169.113 424.354 169.016C424.577 168.919 424.771 168.78 424.937 168.6C425.104 168.419 425.229 168.225 425.312 167.975C425.396 167.739 425.451 167.475 425.451 167.197C425.451 166.919 425.41 166.655 425.312 166.419C425.229 166.183 425.104 165.975 424.937 165.794C424.771 165.613 424.577 165.488 424.354 165.377C424.132 165.28 423.882 165.224 423.604 165.224V165.252Z" fill="white"/>
<path d="M430.148 170.277H428.8V161.652H430.148V170.277Z" fill="white"/>
<path d="M418.048 161.447C418.173 161.447 418.299 161.475 418.423 161.516C418.534 161.572 418.631 161.628 418.729 161.711C418.812 161.795 418.882 161.891 418.923 162.016C418.979 162.127 418.993 162.253 418.993 162.392C418.993 162.53 418.965 162.642 418.923 162.766C418.868 162.878 418.812 162.975 418.729 163.058C418.646 163.141 418.548 163.211 418.423 163.253C418.299 163.295 418.187 163.323 418.048 163.323C417.909 163.323 417.798 163.295 417.673 163.253C417.548 163.211 417.465 163.141 417.381 163.058C417.298 162.975 417.229 162.878 417.187 162.766C417.146 162.656 417.118 162.53 417.118 162.392C417.118 162.253 417.146 162.142 417.187 162.016C417.229 161.906 417.298 161.808 417.381 161.711C417.465 161.628 417.562 161.558 417.673 161.516C417.784 161.461 417.909 161.447 418.048 161.447Z" fill="white"/>
<path d="M317.814 62.4218L322.717 57.5852H320.035L313.132 64.5542V57.5852H311.263V71.831H313.132V66.8626L315.462 64.6861L316.231 63.9387C317.396 64.6861 319.903 66.9066 319.969 71.853H322.123C322.057 66.4229 319.441 63.6309 317.814 62.4218ZM333.09 57.5852H330.43L325.065 71.831H327.044L328.583 67.5661H334.695L336.146 71.831H338.256L333.09 57.5852ZM329.133 66.0052L331.419 59.6957H331.947L334.079 66.0052H329.133ZM349.296 57.5852L345.251 69.7205H344.943L340.92 57.5852H338.788L343.976 71.831H346.262L351.45 57.5852H349.296ZM364.507 57.5852V63.477H356.702V57.5852H354.768V71.831H356.702V65.1698H364.507V71.831H366.463V57.5852H364.507ZM377.402 57.1895C373.334 57.1895 370.279 60.5531 370.279 64.6861C370.279 68.8192 373.334 72.1828 377.402 72.1828C381.469 72.1828 384.546 68.8192 384.546 64.6861C384.546 60.5531 381.469 57.1895 377.402 57.1895ZM377.402 70.4021C374.302 70.4021 372.257 67.8299 372.257 64.6861C372.257 61.5204 374.302 58.9702 377.402 58.9702C380.501 58.9702 382.546 61.5424 382.546 64.6861C382.546 67.8299 380.501 70.4021 377.402 70.4021ZM390.285 70.0723V57.5852H388.372V71.831H397.914V70.0723H390.285ZM412.36 57.5852L408.293 67.72L404.182 57.5852H401.192V71.831H403.017V63.433C403.017 63.0813 403.017 62.5537 402.995 61.8502C402.973 61.1247 402.973 60.1574 402.973 59.8056H403.171L403.215 59.8276L407.304 69.9184H409.216L413.306 59.8276C413.306 59.8496 413.525 59.8056 413.525 59.8496C413.525 60.5531 413.525 61.3445 413.525 61.9821C413.503 62.6416 413.503 63.1253 413.503 63.433V71.831H415.35V57.5852H412.36Z" fill="white"/>
<path d="M122.684 216.873C123.12 216.963 123.504 217.002 123.992 217.002C125.774 217.002 126.8 216.181 126.8 214.334V207.691H125.569V214.244C125.569 215.501 124.992 215.899 123.851 215.899C123.44 215.899 123.132 215.86 122.684 215.77V216.873ZM133.444 215.437V211.975C133.444 210.743 132.52 210.064 131.033 210.064C129.597 210.064 128.481 210.743 128.378 212.167H129.507C129.597 211.449 130.084 211.077 130.969 211.077C131.79 211.077 132.328 211.397 132.328 212.141V212.552L130.661 212.885C129.161 213.18 128.109 213.744 128.109 215.078C128.109 216.283 129.109 217.014 130.328 217.014C131.2 217.014 131.943 216.694 132.354 216.206C132.367 216.476 132.379 216.707 132.405 216.899H133.546C133.482 216.476 133.444 215.937 133.444 215.437ZM132.328 214.616C132.328 215.476 131.469 216.078 130.481 216.078C129.75 216.078 129.263 215.681 129.263 215.027C129.263 214.219 129.943 213.937 130.969 213.731L132.328 213.449V214.616ZM135.309 216.899H136.463V212.898C136.463 211.782 137.31 211.141 138.143 211.141C139.144 211.141 139.541 211.846 139.541 212.782V216.899H140.695V212.475C140.695 211.051 139.887 210.064 138.464 210.064C137.515 210.064 136.848 210.551 136.463 211.102V210.192H135.309V216.899ZM145.228 217.04C146.562 217.04 147.575 216.309 147.985 215.116L146.972 214.757C146.767 215.552 146.126 216.04 145.228 216.04C144.061 216.04 143.253 215.142 143.189 213.731H148.037V213.347C148.037 211.487 147.049 210.064 145.177 210.064C143.356 210.064 142.086 211.551 142.086 213.552C142.086 215.617 143.369 217.04 145.228 217.04ZM145.164 211.051C146.331 211.051 146.844 211.898 146.87 212.847H143.253C143.458 211.705 144.189 211.051 145.164 211.051ZM152.23 216.899H155.154C157.949 216.899 159.719 215.104 159.719 212.295C159.719 209.487 157.949 207.691 155.154 207.691H152.23V216.899ZM153.435 215.835V208.756H155.141C157.244 208.756 158.514 210.141 158.514 212.295C158.514 214.437 157.244 215.835 155.154 215.835H153.435ZM161.119 209.025H162.376V207.691H161.119V209.025ZM162.325 210.192H161.17V216.899H162.325V210.192ZM169.086 215.437V211.975C169.086 210.743 168.163 210.064 166.675 210.064C165.239 210.064 164.123 210.743 164.02 212.167H165.149C165.239 211.449 165.726 211.077 166.611 211.077C167.432 211.077 167.97 211.397 167.97 212.141V212.552L166.303 212.885C164.803 213.18 163.751 213.744 163.751 215.078C163.751 216.283 164.751 217.014 165.97 217.014C166.842 217.014 167.586 216.694 167.996 216.206C168.009 216.476 168.022 216.707 168.047 216.899H169.189C169.125 216.476 169.086 215.937 169.086 215.437ZM167.97 214.616C167.97 215.476 167.111 216.078 166.124 216.078C165.393 216.078 164.905 215.681 164.905 215.027C164.905 214.219 165.585 213.937 166.611 213.731L167.97 213.449V214.616ZM175.799 215.912H171.964L175.76 211.077V210.192H170.567V211.179H174.388L170.515 216.027V216.899H175.799V215.912Z" fill="white"/>
</g>
</g>
<g filter="url(#filter2_dd_4003_461)">
<rect x="97.3569" y="123.857" width="347" height="213" rx="14" fill="white" fill-opacity="0.01" shape-rendering="crispEdges"/>
</g>
<mask id="mask3_4003_461" style="mask-type:luminance" maskUnits="userSpaceOnUse" x="95" y="121" width="350" height="216">
<path d="M430.069 121.715H110.359C102.271 121.715 95.7139 128.272 95.7139 136.36V322.166C95.7139 330.254 102.271 336.811 110.359 336.811H430.069C438.157 336.811 444.714 330.254 444.714 322.166V136.36C444.714 128.272 438.157 121.715 430.069 121.715Z" fill="white"/>
</mask>
<g mask="url(#mask3_4003_461)">
<path d="M95.7158 324.554C95.7158 331.295 101.365 336.81 108.271 336.81H432.16C439.066 336.81 444.716 331.295 444.716 324.554V133.972C444.716 127.23 439.066 121.715 432.16 121.715H108.271C101.365 121.715 95.7158 127.23 95.7158 133.972V324.554Z" fill="#27BB86"/>
<g style="mix-blend-mode:overlay" opacity="0.65">
<path d="M21.8496 226.281C41.8717 198.168 68.5456 179.752 107.706 175.5C228.993 162.328 335.537 266.89 454.759 209.539" stroke="url(#paint6_linear_4003_461)" stroke-linecap="round"/>
<path d="M22.2031 233.878C42.2252 205.765 68.8992 187.35 108.059 183.097C229.347 169.926 335.89 274.488 455.112 217.136" stroke="url(#paint7_linear_4003_461)" stroke-linecap="round"/>
<path d="M21.4326 220.445C41.4547 192.332 68.1286 173.916 107.289 169.664C228.576 156.492 335.12 261.055 454.342 203.703" stroke="url(#paint8_linear_4003_461)" stroke-linecap="round"/>
<path d="M19.4834 213.379C39.5055 185.265 66.1794 166.85 105.34 162.597C226.627 149.426 333.17 253.988 452.393 196.636" stroke="url(#paint9_linear_4003_461)" stroke-linecap="round"/>
<path d="M18.6572 207.138C38.6793 179.025 65.3533 160.61 104.513 156.357C225.801 143.185 332.344 247.748 451.566 190.396" stroke="url(#paint10_linear_4003_461)" stroke-linecap="round"/>
<path d="M17.8291 200.9C37.8512 172.787 64.5251 154.371 103.685 150.119C224.973 136.947 331.516 241.509 450.738 184.158" stroke="url(#paint11_linear_4003_461)" stroke-linecap="round"/>
<path d="M26.2754 259.579C46.2975 231.466 72.9714 213.051 112.132 208.798C233.419 195.627 339.962 300.189 459.185 242.837" stroke="url(#paint12_linear_4003_461)" stroke-linecap="round"/>
<path d="M26.6289 267.178C46.651 239.064 73.3249 220.649 112.485 216.396C233.773 203.225 340.316 307.787 459.538 250.435" stroke="url(#paint13_linear_4003_461)" stroke-linecap="round"/>
<path d="M25.8584 253.744C45.8805 225.63 72.5544 207.215 111.715 202.963C233.002 189.791 339.545 294.353 458.768 237.001" stroke="url(#paint14_linear_4003_461)" stroke-linecap="round"/>
<path d="M23.9092 246.678C43.9312 218.564 70.6052 200.149 109.765 195.896C231.053 182.725 337.596 287.287 456.818 229.935" stroke="url(#paint15_linear_4003_461)" stroke-linecap="round"/>
<path d="M23.083 240.437C43.1051 212.324 69.779 193.909 108.939 189.656C230.227 176.484 336.77 281.047 455.992 223.695" stroke="url(#paint16_linear_4003_461)" stroke-linecap="round"/>
<path d="M22.2549 234.199C42.2769 206.085 68.9509 187.67 108.111 183.418C229.399 170.246 335.942 274.808 455.164 217.457" stroke="url(#paint17_linear_4003_461)" stroke-linecap="round"/>
</g>
<path d="M123.714 308.916V299.715H124.944V307.839H129.532V308.916H123.714ZM135.614 307.455C135.614 307.955 135.652 308.493 135.717 308.916H134.577C134.55 308.686 134.533 308.455 134.525 308.224C134.115 308.711 133.372 309.031 132.5 309.031C131.283 309.031 130.283 308.301 130.283 307.096C130.283 305.763 131.334 305.199 132.833 304.905L134.499 304.572V304.162C134.499 303.418 133.961 303.098 133.141 303.098C132.257 303.098 131.77 303.47 131.681 304.187H130.553C130.655 302.765 131.77 302.086 133.205 302.086C134.691 302.086 135.615 302.765 135.615 303.995L135.614 307.455ZM134.499 306.635V305.469L133.141 305.75C132.116 305.956 131.437 306.237 131.437 307.045C131.437 307.698 131.924 308.095 132.654 308.095C133.641 308.095 134.499 307.493 134.499 306.635ZM138.17 305.571C138.17 307.096 138.99 308.044 140.182 308.044C141.104 308.044 141.655 307.455 141.848 306.622L142.873 307.096C142.553 308.211 141.579 309.057 140.182 309.057C138.311 309.057 137.017 307.634 137.017 305.571C137.017 303.495 138.311 302.086 140.182 302.086C141.579 302.086 142.527 302.893 142.847 304.008L141.847 304.508C141.655 303.687 141.105 303.085 140.182 303.085C138.99 303.085 138.17 304.033 138.17 305.571ZM144.136 308.916V299.715H145.289V303.124C145.511 302.8 145.809 302.535 146.158 302.354C146.507 302.173 146.895 302.081 147.288 302.086C148.71 302.086 149.518 303.072 149.518 304.495V308.916H148.364V304.802C148.364 303.867 147.967 303.162 146.967 303.162C146.134 303.162 145.289 303.803 145.289 304.918V308.916H144.134H144.136ZM152.522 299.715V308.916H151.368V299.715H152.522ZM159.278 307.455C159.278 307.955 159.316 308.493 159.38 308.916H158.24C158.214 308.686 158.197 308.455 158.189 308.224C157.779 308.711 157.035 309.031 156.164 309.031C154.947 309.031 153.947 308.301 153.947 307.096C153.947 305.763 154.997 305.199 156.497 304.905L158.163 304.572V304.162C158.163 303.418 157.625 303.098 156.805 303.098C155.92 303.098 155.434 303.47 155.344 304.187H154.216C154.319 302.765 155.434 302.086 156.869 302.086C158.355 302.086 159.278 302.765 159.278 303.995V307.455ZM158.163 306.635V305.469L156.805 305.75C155.78 305.956 155.1 306.237 155.1 307.045C155.1 307.698 155.587 308.095 156.318 308.095C157.304 308.095 158.163 307.493 158.163 306.635ZM161.142 308.916V302.214H162.295V303.124C162.517 302.799 162.816 302.535 163.165 302.354C163.513 302.173 163.902 302.081 164.295 302.086C165.716 302.086 166.524 303.072 166.524 304.495V308.916H165.37V304.802C165.37 303.867 164.973 303.162 163.974 303.162C163.141 303.162 162.295 303.803 162.295 304.918V308.916H161.142ZM171.129 308.916V299.715H174.525C176.473 299.715 177.511 300.574 177.511 302.111C177.511 303.29 176.793 303.88 176.088 304.123C177.126 304.405 177.818 305.212 177.818 306.378C177.818 307.98 176.652 308.916 174.794 308.916H171.129ZM172.321 303.662H174.422C175.652 303.662 176.332 303.188 176.332 302.214C176.332 301.227 175.652 300.753 174.422 300.753H172.321V303.662ZM172.321 304.713V307.878H174.743C175.973 307.878 176.639 307.237 176.639 306.289C176.639 305.353 175.973 304.713 174.743 304.713H172.321ZM182.734 302.188V303.354C182.549 303.317 182.36 303.3 182.171 303.303C181.197 303.303 180.415 304.072 180.415 305.251V308.916H179.262V302.214H180.414V303.354C180.709 302.675 181.363 302.163 182.272 302.163C182.452 302.163 182.618 302.175 182.734 302.188ZM189.496 305.571C189.496 307.647 188.214 309.057 186.382 309.057C184.549 309.057 183.268 307.647 183.268 305.571C183.268 303.495 184.549 302.086 186.382 302.086C188.214 302.086 189.496 303.495 189.496 305.571ZM184.434 305.571C184.434 307.096 185.203 308.07 186.382 308.07C187.561 308.07 188.33 307.096 188.33 305.571C188.33 304.033 187.56 303.06 186.382 303.06C185.203 303.06 184.434 304.033 184.434 305.571ZM194.028 302.214H195.002L196.386 307.211L197.783 302.214H198.936L196.898 308.916H195.886L194.489 303.944L193.093 308.916H192.08L190.043 302.214H191.235L192.645 307.199L194.028 302.214ZM200.06 308.916V302.214H201.213V303.124C201.435 302.8 201.734 302.535 202.082 302.354C202.431 302.173 202.819 302.081 203.212 302.086C204.635 302.086 205.442 303.072 205.442 304.495V308.916H204.289V304.802C204.289 303.867 203.891 303.162 202.892 303.162C202.059 303.162 201.213 303.803 201.213 304.918V308.916H200.06Z" fill="white"/>
<path fill-rule="evenodd" clip-rule="evenodd" d="M286.052 153.525C286.052 153.916 285.731 154.237 285.34 154.237H274.043C273.651 154.237 273.33 153.916 273.33 153.525C273.33 153.134 273.651 152.813 274.043 152.813H285.34C285.731 152.813 286.052 153.134 286.052 153.525ZM286.862 156.36C286.862 156.751 286.541 157.072 286.15 157.072H278.078C277.687 157.072 277.366 156.751 277.366 156.36C277.366 155.969 277.687 155.648 278.078 155.648H286.15C286.541 155.648 286.862 155.969 286.862 156.36ZM286.15 151.403H278.888C278.497 151.403 278.176 151.082 278.176 150.691C278.176 150.299 278.497 149.978 278.888 149.978H286.15C286.541 149.978 286.862 150.299 286.862 150.691C286.862 151.082 286.541 151.403 286.15 151.403ZM294.514 153.525C294.514 155.48 292.937 157.058 290.981 157.058C289.027 157.058 287.449 155.466 287.449 153.525C287.449 151.584 289.027 149.992 290.981 149.992C292.937 149.992 294.514 151.584 294.514 153.525ZM288.873 153.525C288.873 154.698 289.823 155.648 290.995 155.648C292.168 155.648 293.118 154.698 293.118 153.525C293.118 152.352 292.168 151.403 290.995 151.403C289.823 151.403 288.873 152.352 288.873 153.525ZM290.995 147.157C294.501 147.157 297.349 150.02 297.349 153.525C297.349 157.03 294.501 159.893 290.995 159.893H281.318C280.927 159.893 280.606 159.572 280.606 159.181C280.606 158.79 280.927 158.469 281.318 158.469H290.995C293.718 158.469 295.939 156.248 295.939 153.511C295.939 150.774 293.718 148.553 290.995 148.553H275.662C275.271 148.553 274.95 148.232 274.95 147.842C274.95 147.451 275.271 147.13 275.662 147.13H290.995V147.157ZM315.559 155.885V151.179C315.559 148.358 317.458 146.376 320.196 146.376C322.933 146.376 324.832 148.358 324.832 151.179V155.885C324.832 158.692 322.918 160.647 320.196 160.647C317.472 160.647 315.559 158.678 315.559 155.885ZM322.137 155.983V151.082C322.137 149.531 321.215 148.959 320.196 148.959C319.232 148.959 318.282 149.475 318.282 151.054V155.955C318.282 157.505 319.19 158.05 320.196 158.05C321.117 158.05 322.137 157.561 322.137 155.969V155.983ZM331.73 148.959C330.794 148.959 329.817 149.475 329.817 151.054V155.955C329.817 157.589 330.794 158.077 331.73 158.077C332.987 158.077 333.671 157.463 333.671 155.452V155.271H336.38C336.38 158.804 334.872 160.661 331.744 160.661C329.007 160.661 327.108 158.692 327.108 155.871V151.123C327.108 148.317 329.007 146.361 331.744 146.361C334.816 146.361 336.38 148.387 336.38 151.598H333.671V151.403C333.671 149.364 332.68 148.945 331.73 148.945V148.959ZM345.275 160.451L342.538 154.698H341.519V160.451H338.81V146.612H341.519V152.31H342.538L345.275 146.612H348.306L344.857 153.483L348.306 160.451H345.275ZM353.347 149.224V152.366H357.09V154.726H353.347V157.868H358.402V160.451H350.652V146.612H358.402V149.224H353.347ZM365.664 149.224V160.451H362.955V149.224H360.078V146.612H368.54V149.224H365.664ZM387.1 160.451V146.612H389.809V160.451H387.1ZM392.978 146.612H397.517C400.254 146.612 402.153 148.302 402.153 151.682V155.327C402.153 158.664 400.254 160.451 397.517 160.451H392.978V146.612ZM395.688 157.882H397.21C398.509 157.882 399.486 157.365 399.486 154.67V151.975C399.486 150.481 399.095 149.21 397.21 149.21H395.688V157.882ZM407.628 149.224V152.366H411.37V154.726H407.628V157.868H412.682V160.451H404.933V146.612H412.682V149.224H407.628ZM414.54 150.425C414.54 147.897 416.341 146.361 419.078 146.361C421.815 146.361 423.589 148.149 423.589 150.997H420.921C420.921 149.531 420.195 148.833 419.037 148.833C417.878 148.833 417.235 149.377 417.235 150.425C417.235 153.176 423.756 151.542 423.756 156.486C423.756 159.111 421.871 160.689 419.078 160.689C416.285 160.689 414.359 158.86 414.359 155.899H417.067C417.067 157.505 417.891 158.175 419.078 158.175C420.265 158.175 421.061 157.645 421.061 156.514C421.061 153.889 414.54 155.34 414.54 150.425ZM311.3 156.248L313.632 160.451H310.672L308.814 156.877L308.479 156.276H307.013V160.451H304.304V146.612H308.689C312.585 146.612 313.311 149.852 313.311 151.612C313.311 153.567 312.333 154.977 310.937 155.634C311.063 155.857 311.188 156.081 311.286 156.248H311.3ZM307.013 149.21V153.721H308.368C309.498 153.721 310.644 153.218 310.644 151.445C310.644 149.657 309.555 149.21 308.368 149.21H307.013ZM382.337 156.248L384.67 160.451H381.71L379.852 156.877L379.517 156.276H378.051V160.451H375.355V146.612H379.74C383.636 146.612 384.362 149.852 384.362 151.612C384.362 153.567 383.385 154.977 381.988 155.634C382.114 155.857 382.24 156.081 382.337 156.248ZM378.051 149.21V153.721H379.405C380.536 153.721 381.681 153.218 381.681 151.445C381.681 149.657 380.592 149.21 379.405 149.21H378.051Z" fill="white"/>
<path d="M388.185 294.143L383.31 317.562H377.389L382.265 294.143H388.185ZM412.739 309.275L415.874 300.448L417.615 309.275H412.739ZM419.356 317.562H424.755L420.053 294.143H415.003C413.958 294.143 412.913 294.863 412.565 295.944L403.858 317.562H409.953L411.172 314.139H418.66L419.356 317.562ZM404.032 309.816C404.032 303.691 395.848 303.33 395.848 300.628C396.022 299.367 397.067 298.646 398.286 298.646C400.201 298.466 402.291 298.827 404.032 299.727L405.077 294.683C403.336 293.963 401.42 293.602 399.679 293.602C393.932 293.602 389.753 296.845 389.753 301.349C389.753 304.772 392.713 306.573 394.803 307.654C397.067 308.735 397.937 309.456 397.763 310.536C397.763 312.158 396.022 312.878 394.28 312.878C392.191 312.878 390.101 312.338 388.185 311.437L387.141 316.481C389.23 317.382 391.494 317.742 393.584 317.742C400.027 317.923 404.032 314.68 404.032 309.816ZM379.827 294.143L370.423 317.562H364.154L359.452 298.827C359.452 297.926 358.756 297.205 358.059 296.845C356.318 295.944 354.402 295.224 352.313 294.863L352.487 294.143H362.413C363.806 294.143 364.851 295.224 365.025 296.485L367.463 309.996L373.732 294.143H379.827Z" fill="white"/>
</g>
<g filter="url(#filter3_dd_4003_461)">
<rect x="97.3569" y="216.857" width="347" height="213" rx="14" fill="white" fill-opacity="0.01" shape-rendering="crispEdges"/>
</g>
<path d="M431.183 215.857H110.531C102.703 215.857 96.3569 222.203 96.3569 230.031V416.946C96.3569 424.774 102.703 431.119 110.531 431.119H431.183C439.011 431.119 445.357 424.774 445.357 416.946V230.031C445.357 222.203 439.011 215.857 431.183 215.857Z" fill="white"/>
<mask id="mask4_4003_461" style="mask-type:alpha" maskUnits="userSpaceOnUse" x="96" y="215" width="350" height="217">
<path d="M431.187 215.857H110.527C102.701 215.857 96.3569 222.202 96.3569 230.027V416.949C96.3569 424.775 102.701 431.119 110.527 431.119H431.187C439.013 431.119 445.357 424.775 445.357 416.949V230.027C445.357 222.202 439.013 215.857 431.187 215.857Z" fill="black"/>
</mask>
<g mask="url(#mask4_4003_461)">
<path d="M267.928 452.155C246.757 451.201 240.33 428.701 241.275 417.642C239.277 403.341 253.562 400.862 264.525 396.477C275.489 392.091 294.77 401.434 300.441 417.642C306.111 433.85 289.099 453.108 267.928 452.155Z" fill="#C9EBDA"/>
<path d="M208.262 212.998C179.473 194.587 153.302 187.474 109.683 195.006C88.3099 197.098 41.9045 228.471 81.767 318.439C96.5984 351.913 126.258 367.394 158.536 374.507C190.814 381.62 194.74 364.465 201.283 347.728C207.825 330.991 216.113 324.715 244.465 299.192C272.817 273.668 237.05 231.408 208.262 212.998Z" fill="#C9EBDA"/>
<path d="M279.004 320.644C290.44 311.321 296.095 301.847 295.968 284.046C296.693 275.49 285.047 254.128 237.445 260.349C219.734 262.664 209.67 272.631 203.514 284.488C197.358 296.344 205.487 299.656 213.196 303.945C220.905 308.234 223.316 312.119 233.562 325.829C243.809 339.539 267.569 329.967 279.004 320.644Z" fill="#C9EBDA"/>
<path fill-rule="evenodd" clip-rule="evenodd" d="M250.72 259.27C246.642 259.379 242.225 259.726 237.446 260.35C219.735 262.665 209.67 272.632 203.514 284.488C197.781 295.529 204.436 299.16 211.604 303.071C212.133 303.36 212.666 303.65 213.196 303.946C218.566 306.934 221.365 309.725 226.033 315.779C229.199 312.882 232.784 309.67 236.871 306.009C239.23 303.895 241.756 301.632 244.465 299.193C256.931 287.971 257.002 273.513 250.72 259.27Z" fill="#9ED9BA"/>
<path d="M428.513 359.63C439.664 371.26 450.472 376.584 469.837 374.884C479.214 374.923 501.444 360.375 490.499 309.106C486.426 290.031 474.695 279.95 461.25 274.289C447.804 268.628 444.912 277.767 440.92 286.534C436.927 295.301 432.91 298.266 418.885 310.621C404.86 322.976 417.362 347.999 428.513 359.63Z" fill="#C9EBDA"/>
<path d="M125.403 401.899H124.183V392.691H130.133V393.768H125.403V396.731H129.403V397.808H125.403V401.899ZM134.371 395.166V396.333C134.185 396.296 133.996 396.279 133.807 396.282C132.832 396.282 132.05 397.051 132.05 398.231V401.899H130.896V395.192H132.05V396.333C132.345 395.654 132.999 395.141 133.91 395.141C134.09 395.141 134.257 395.153 134.371 395.166ZM140.339 400.437C140.339 400.937 140.378 401.476 140.442 401.899H139.3C139.274 401.669 139.257 401.438 139.25 401.206C138.839 401.694 138.095 402.014 137.223 402.014C136.005 402.014 135.003 401.283 135.003 400.078C135.003 398.744 136.056 398.18 137.556 397.885L139.223 397.552V397.141C139.223 396.397 138.685 396.077 137.863 396.077C136.979 396.077 136.492 396.449 136.402 397.167H135.274C135.376 395.743 136.492 395.064 137.928 395.064C139.416 395.064 140.338 395.743 140.338 396.975L140.339 400.437ZM139.223 399.616V398.449L137.863 398.731C136.838 398.937 136.159 399.219 136.159 400.027C136.159 400.681 136.646 401.078 137.377 401.078C138.364 401.078 139.223 400.476 139.223 399.616ZM142.205 401.899V395.192H143.359V396.102C143.581 395.778 143.88 395.514 144.229 395.333C144.578 395.152 144.966 395.06 145.359 395.064C146.783 395.064 147.591 396.051 147.591 397.475V401.899H146.437V397.782C146.437 396.846 146.039 396.141 145.039 396.141C144.205 396.141 143.359 396.782 143.359 397.898V401.899H142.205ZM150.597 392.691V398.321L153.573 395.192H155.009L152.393 397.834L155.227 401.899H153.88L151.572 398.667L150.597 399.655V401.899H149.443V392.691H150.597ZM164.001 401.899H163.013L160.203 394.32V401.899H159.051V392.691H160.731L163.527 400.258L166.335 392.691H167.964V401.899H166.821V394.32L164.001 401.899ZM170.637 398.552C170.637 400.078 171.457 401.027 172.65 401.027C173.574 401.027 174.125 400.437 174.317 399.603L175.343 400.078C175.023 401.194 174.048 402.04 172.65 402.04C170.778 402.04 169.483 400.617 169.483 398.552C169.483 396.474 170.778 395.064 172.65 395.064C174.048 395.064 174.997 395.872 175.318 396.987L174.318 397.487C174.125 396.667 173.574 396.064 172.65 396.064C171.458 396.064 170.637 397.013 170.637 398.552ZM183.93 392.691V401.899H182.865L177.838 394.487V401.899H176.657V392.691H177.953L182.736 399.809V392.691H183.93ZM190.734 400.437C190.734 400.937 190.773 401.476 190.837 401.899H189.695C189.669 401.669 189.652 401.438 189.644 401.206C189.234 401.694 188.49 402.014 187.618 402.014C186.4 402.014 185.398 401.283 185.398 400.078C185.398 398.744 186.451 398.18 187.951 397.885L189.618 397.552V397.141C189.618 396.397 189.08 396.077 188.258 396.077C187.374 396.077 186.887 396.449 186.797 397.167H185.669C185.771 395.743 186.887 395.064 188.323 395.064C189.811 395.064 190.733 395.743 190.733 396.975L190.734 400.437ZM189.618 399.616V398.449L188.258 398.731C187.233 398.937 186.553 399.219 186.553 400.027C186.553 400.681 187.041 401.078 187.772 401.078C188.759 401.078 189.618 400.476 189.618 399.616ZM193.754 397.885V401.899H192.6V395.192H193.754V396.102C193.961 395.778 194.247 395.512 194.586 395.33C194.925 395.149 195.305 395.057 195.69 395.064C196.588 395.064 197.216 395.513 197.55 396.205C197.785 395.853 198.103 395.565 198.477 395.365C198.851 395.166 199.268 395.063 199.691 395.064C201.076 395.064 201.91 396.051 201.91 397.475V401.899H200.756V397.782C200.756 396.846 200.371 396.141 199.422 396.141C198.653 396.141 197.832 396.795 197.832 397.885V401.899H196.678V397.782C196.678 396.846 196.293 396.141 195.344 396.141C194.574 396.141 193.754 396.795 193.754 397.885ZM208.605 400.437C208.605 400.937 208.644 401.476 208.708 401.899H207.567C207.54 401.669 207.523 401.438 207.515 401.206C207.105 401.694 206.361 402.014 205.489 402.014C204.271 402.014 203.27 401.283 203.27 400.078C203.27 398.744 204.322 398.18 205.822 397.885L207.49 397.552V397.141C207.49 396.397 206.951 396.077 206.13 396.077C205.245 396.077 204.758 396.449 204.668 397.167H203.54C203.642 395.743 204.758 395.064 206.194 395.064C207.682 395.064 208.605 395.743 208.605 396.975V400.437ZM207.49 399.616V398.449L206.13 398.731C205.104 398.937 204.425 399.219 204.425 400.027C204.425 400.681 204.912 401.078 205.643 401.078C206.63 401.078 207.49 400.476 207.49 399.616ZM213.946 395.166V396.333C213.76 396.296 213.571 396.279 213.382 396.282C212.407 396.282 211.625 397.051 211.625 398.231V401.899H210.471V395.192H211.625V396.333C211.92 395.654 212.574 395.141 213.484 395.141C213.664 395.141 213.831 395.153 213.946 395.166ZM219.914 400.437C219.914 400.937 219.953 401.476 220.017 401.899H218.875C218.849 401.669 218.832 401.438 218.824 401.206C218.414 401.694 217.67 402.014 216.798 402.014C215.58 402.014 214.579 401.283 214.579 400.078C214.579 398.744 215.631 398.18 217.131 397.885L218.798 397.552V397.141C218.798 396.397 218.26 396.077 217.439 396.077C216.554 396.077 216.067 396.449 215.977 397.167H214.849C214.951 395.743 216.067 395.064 217.503 395.064C218.991 395.064 219.914 395.743 219.914 396.975V400.437ZM218.798 399.616V398.449L217.439 398.731C216.413 398.937 215.733 399.219 215.733 400.027C215.733 400.681 216.221 401.078 216.952 401.078C217.939 401.078 218.798 400.476 218.798 399.616Z" fill="black"/>
<path d="M389.056 388.418L384.177 411.856H378.251L383.131 388.418H389.056ZM413.629 403.562L416.766 394.728L418.509 403.562H413.629ZM420.252 411.856H425.654L420.949 388.418H415.895C414.849 388.418 413.803 389.139 413.455 390.221L404.741 411.856H410.841L412.061 408.43H419.554L420.252 411.856ZM404.915 404.103C404.915 397.973 396.725 397.613 396.725 394.908C396.899 393.646 397.944 392.925 399.164 392.925C401.081 392.745 403.173 393.105 404.915 394.007L405.961 388.959C404.218 388.238 402.301 387.877 400.559 387.877C394.807 387.877 390.625 391.122 390.625 395.63C390.625 399.055 393.588 400.858 395.679 401.94C397.944 403.021 398.816 403.743 398.642 404.824C398.642 406.447 396.899 407.168 395.156 407.168C393.065 407.168 390.973 406.627 389.056 405.726L388.011 410.774C390.102 411.675 392.368 412.036 394.459 412.036C400.907 412.216 404.915 408.971 404.915 404.103ZM380.691 388.418L371.28 411.856H365.007L360.301 393.105C360.301 392.204 359.604 391.483 358.907 391.122C357.164 390.221 355.247 389.5 353.156 389.139L353.33 388.418H363.264C364.658 388.418 365.704 389.5 365.878 390.762L368.318 404.283L374.592 388.418H380.691Z" fill="black"/>
</g>
<path fill-rule="evenodd" clip-rule="evenodd" d="M392.042 250.018C392.042 250.834 392.163 251.428 392.406 251.8C392.65 252.172 393.085 252.358 393.71 252.358V252.917C393.171 252.863 392.632 252.837 392.094 252.837C390.546 252.837 389.278 252.961 388.288 253.209V250.923C387.696 252.517 386.568 253.315 384.899 253.315C383.265 253.315 381.962 252.713 380.989 251.507C380.033 250.284 379.564 248.449 379.581 246.003C379.581 244.442 379.825 243.13 380.311 242.067C380.815 240.986 381.501 240.179 382.37 239.647C383.257 239.097 384.264 238.823 385.394 238.823C386.663 238.823 387.627 239.159 388.288 239.833V235.313C388.288 234.497 388.157 233.903 387.896 233.531C387.653 233.158 387.227 232.972 386.619 232.972V232.414C387.175 232.467 387.714 232.494 388.236 232.494C389.748 232.494 391.017 232.369 392.042 232.121V250.018ZM385.968 252.172C386.541 252.172 387.045 251.96 387.48 251.534C387.931 251.108 388.201 250.533 388.288 249.805V240.498C387.854 239.895 387.219 239.594 386.384 239.594C385.464 239.594 384.751 240.134 384.247 241.216C383.743 242.297 383.5 243.91 383.518 246.056C383.5 248.219 383.7 249.779 384.116 250.736C384.551 251.694 385.168 252.172 385.968 252.172ZM334.291 239.186C335.195 239.186 335.995 239.44 336.69 239.95C337.402 240.459 337.958 241.223 338.358 242.241C338.758 243.261 338.958 244.507 338.958 245.98C338.958 248.581 338.41 250.582 337.315 251.983C336.238 253.366 334.77 254.057 332.91 254.057C332.389 254.057 331.893 253.984 331.424 253.838C330.972 253.693 330.581 253.475 330.251 253.184V255.912C330.251 256.713 330.442 257.268 330.824 257.577C331.207 257.886 331.798 258.04 332.597 258.04V258.614L331.893 258.586C329.965 258.532 328.739 258.504 328.218 258.504C327.697 258.504 326.601 258.541 324.933 258.614V258.04C325.506 258.04 325.906 257.905 326.132 257.632C326.375 257.376 326.497 256.895 326.497 256.185V242.542C326.497 241.706 326.367 241.096 326.106 240.714C325.863 240.332 325.437 240.14 324.829 240.14V239.567C325.385 239.622 325.924 239.649 326.445 239.649C327.957 239.649 329.225 239.522 330.251 239.268V241.778C330.616 240.942 331.146 240.305 331.841 239.868C332.536 239.413 333.353 239.186 334.291 239.186ZM331.893 253.32C333.005 253.32 333.805 252.747 334.291 251.602C334.778 250.436 335.021 248.745 335.021 246.526C335.021 244.306 334.822 242.724 334.422 241.778C334.04 240.832 333.484 240.359 332.753 240.359C332.162 240.359 331.633 240.568 331.164 240.987C330.711 241.405 330.408 241.987 330.251 242.733V252.584C330.668 253.075 331.216 253.32 331.893 253.32ZM347.79 239.186C350 239.186 351.73 239.756 352.98 240.897C354.229 242.02 354.854 243.81 354.854 246.264C354.854 248.718 354.229 250.507 352.98 251.63C351.73 252.754 350 253.315 347.79 253.315C345.598 253.315 343.868 252.754 342.598 251.63C341.35 250.507 340.724 248.718 340.724 246.264C340.724 243.81 341.35 242.02 342.598 240.897C343.868 239.756 345.598 239.186 347.79 239.186ZM347.79 239.704C346.963 239.704 346.299 240.249 345.8 241.337C345.319 242.409 345.078 244.051 345.078 246.264C345.078 248.476 345.319 250.118 345.8 251.19C346.299 252.261 346.963 252.797 347.79 252.797C348.635 252.797 349.299 252.27 349.779 251.216C350.259 250.144 350.5 248.494 350.5 246.264C350.5 244.033 350.25 242.383 349.751 241.311C349.27 240.24 348.615 239.704 347.79 239.704ZM375.785 239.294C376.694 239.294 377.37 239.267 377.814 239.212V239.756C377.441 239.865 377.103 240.091 376.8 240.435C376.497 240.779 376.23 241.332 376 242.092L372.449 253.315C372.254 253.297 371.96 253.288 371.568 253.288C371.194 253.288 370.91 253.297 370.714 253.315L367.083 243.234L364.121 253.315C363.943 253.297 363.658 253.288 363.266 253.288C362.875 253.288 362.581 253.297 362.385 253.315L358.168 241.304C357.955 240.671 357.715 240.263 357.448 240.082C357.181 239.883 356.904 239.783 356.62 239.783V239.212C357.777 239.321 359.04 239.376 360.41 239.376C361.3 239.376 362.457 239.321 363.881 239.212V239.783C363.293 239.783 362.867 239.829 362.599 239.919C362.35 240.01 362.225 240.227 362.225 240.571C362.225 240.807 362.27 241.051 362.359 241.304L364.761 248.994L367.671 239.186L368.659 239.212L369.619 239.186L373.09 249.565L374.771 244.104C375.021 243.252 375.145 242.564 375.145 242.039C375.145 240.625 374.442 239.865 373.036 239.756V239.212C373.873 239.267 374.789 239.294 375.785 239.294ZM407.829 250.109C407.829 250.909 407.96 251.491 408.218 251.855C408.496 252.221 408.958 252.403 409.605 252.403V252.951C409.031 252.898 408.459 252.872 407.885 252.872C406.276 252.872 404.927 252.994 403.835 253.238V250.891C402.985 252.508 401.496 253.315 399.369 253.315C397.982 253.315 396.974 252.977 396.345 252.298C396.049 251.969 395.828 251.542 395.68 251.021C395.55 250.483 395.486 249.779 395.486 248.91V242.314C395.486 241.515 395.347 240.932 395.069 240.567C394.811 240.203 394.357 240.019 393.71 240.019V239.472C394.283 239.524 394.856 239.55 395.43 239.55C397.039 239.55 398.388 239.429 399.48 239.186V249.979C399.48 250.709 399.59 251.257 399.812 251.621C400.053 251.986 400.498 252.169 401.144 252.169C401.884 252.169 402.513 251.882 403.03 251.308C403.567 250.717 403.835 249.996 403.835 249.144V242.314C403.835 241.515 403.697 240.932 403.419 240.567C403.16 240.203 402.707 240.019 402.06 240.019V239.472C402.651 239.524 403.225 239.55 403.78 239.55C405.389 239.55 406.738 239.429 407.829 239.186V250.109ZM423.08 239.904C422.646 239.425 422.001 239.186 421.148 239.186C420.296 239.186 419.528 239.425 418.846 239.904C418.164 240.366 417.643 240.977 417.284 241.74V239.266C416.203 239.514 414.82 239.638 413.134 239.638C412.566 239.638 411.978 239.611 411.371 239.558V240.117C412.054 240.117 412.528 240.304 412.793 240.676C413.058 241.049 413.19 241.643 413.19 242.458V250.84C413.19 251.568 413.058 252.073 412.793 252.358C412.528 252.623 412.054 252.756 411.371 252.756V253.315C411.599 253.315 411.788 253.306 411.94 253.289C413.758 253.235 414.924 253.208 415.435 253.208C416.08 253.208 417.368 253.235 419.301 253.289C419.472 253.306 419.689 253.315 419.955 253.315V252.756C419.027 252.756 418.344 252.597 417.908 252.277C417.491 251.958 417.284 251.39 417.284 250.574V243.523C417.284 242.778 417.529 242.05 418.022 241.34C418.534 240.632 419.149 240.224 419.869 240.117C419.984 240.081 420.134 240.063 420.324 240.063C420.476 240.063 420.59 240.073 420.665 240.09C419.832 240.622 419.415 241.315 419.415 242.166C419.415 242.681 419.604 243.098 419.983 243.416C420.363 243.719 420.874 243.869 421.518 243.869C422.181 243.869 422.712 243.665 423.109 243.257C423.526 242.831 423.735 242.29 423.735 241.633C423.735 240.96 423.517 240.383 423.08 239.904Z" fill="black"/>
<defs>
<filter id="filter0_dd_4003_461" x="0.500253" y="385.1" width="75.2534" height="75.2534" filterUnits="userSpaceOnUse" color-interpolation-filters="sRGB">
<feFlood flood-opacity="0" result="BackgroundImageFix"/>
<feColorMatrix in="SourceAlpha" type="matrix" values="0 0 0 0 0 0 0 0 0 0 0 0 0 0 0 0 0 0 127 0" result="hardAlpha"/>
<feMorphology radius="7.56" operator="erode" in="SourceAlpha" result="effect1_dropShadow_4003_461"/>
<feOffset dy="7.56"/>
<feGaussianBlur stdDeviation="7.56"/>
<feComposite in2="hardAlpha" operator="out"/>
<feColorMatrix type="matrix" values="0 0 0 0 0 0 0 0 0 0 0 0 0 0 0 0 0 0 0.1 0"/>
<feBlend mode="normal" in2="BackgroundImageFix" result="effect1_dropShadow_4003_461"/>
<feColorMatrix in="SourceAlpha" type="matrix" values="0 0 0 0 0 0 0 0 0 0 0 0 0 0 0 0 0 0 127 0" result="hardAlpha"/>
<feMorphology radius="11.5733" operator="erode" in="SourceAlpha" result="effect2_dropShadow_4003_461"/>
<feOffset dy="12.6"/>
<feGaussianBlur stdDeviation="12.6"/>
<feComposite in2="hardAlpha" operator="out"/>
<feColorMatrix type="matrix" values="0 0 0 0 0.196078 0 0 0 0 0.196078 0 0 0 0 0.364706 0 0 0 0.25 0"/>
<feBlend mode="normal" in2="effect1_dropShadow_4003_461" result="effect2_dropShadow_4003_461"/>
<feBlend mode="normal" in="SourceGraphic" in2="effect2_dropShadow_4003_461" result="shape"/>
</filter>
<filter id="filter1_dd_4003_461" x="15.8569" y="0.857422" width="507" height="373" filterUnits="userSpaceOnUse" color-interpolation-filters="sRGB">
<feFlood flood-opacity="0" result="BackgroundImageFix"/>
<feColorMatrix in="SourceAlpha" type="matrix" values="0 0 0 0 0 0 0 0 0 0 0 0 0 0 0 0 0 0 127 0" result="hardAlpha"/>
<feMorphology radius="30" operator="erode" in="SourceAlpha" result="effect1_dropShadow_4003_461"/>
<feOffset dy="30"/>
<feGaussianBlur stdDeviation="30"/>
<feComposite in2="hardAlpha" operator="out"/>
<feColorMatrix type="matrix" values="0 0 0 0 0 0 0 0 0 0 0 0 0 0 0 0 0 0 0.3 0"/>
<feBlend mode="normal" in2="BackgroundImageFix" result="effect1_dropShadow_4003_461"/>
<feColorMatrix in="SourceAlpha" type="matrix" values="0 0 0 0 0 0 0 0 0 0 0 0 0 0 0 0 0 0 127 0" result="hardAlpha"/>
<feMorphology radius="20" operator="erode" in="SourceAlpha" result="effect2_dropShadow_4003_461"/>
<feOffset dy="50"/>
<feGaussianBlur stdDeviation="50"/>
<feComposite in2="hardAlpha" operator="out"/>
<feColorMatrix type="matrix" values="0 0 0 0 0.196078 0 0 0 0 0.196078 0 0 0 0 0.364706 0 0 0 0.25 0"/>
<feBlend mode="normal" in2="effect1_dropShadow_4003_461" result="effect2_dropShadow_4003_461"/>
<feBlend mode="normal" in="SourceGraphic" in2="effect2_dropShadow_4003_461" result="shape"/>
</filter>
<filter id="filter2_dd_4003_461" x="17.3569" y="93.8574" width="507" height="373" filterUnits="userSpaceOnUse" color-interpolation-filters="sRGB">
<feFlood flood-opacity="0" result="BackgroundImageFix"/>
<feColorMatrix in="SourceAlpha" type="matrix" values="0 0 0 0 0 0 0 0 0 0 0 0 0 0 0 0 0 0 127 0" result="hardAlpha"/>
<feMorphology radius="30" operator="erode" in="SourceAlpha" result="effect1_dropShadow_4003_461"/>
<feOffset dy="30"/>
<feGaussianBlur stdDeviation="30"/>
<feComposite in2="hardAlpha" operator="out"/>
<feColorMatrix type="matrix" values="0 0 0 0 0 0 0 0 0 0 0 0 0 0 0 0 0 0 0.3 0"/>
<feBlend mode="normal" in2="BackgroundImageFix" result="effect1_dropShadow_4003_461"/>
<feColorMatrix in="SourceAlpha" type="matrix" values="0 0 0 0 0 0 0 0 0 0 0 0 0 0 0 0 0 0 127 0" result="hardAlpha"/>
<feMorphology radius="20" operator="erode" in="SourceAlpha" result="effect2_dropShadow_4003_461"/>
<feOffset dy="50"/>
<feGaussianBlur stdDeviation="50"/>
<feComposite in2="hardAlpha" operator="out"/>
<feColorMatrix type="matrix" values="0 0 0 0 0.196078 0 0 0 0 0.196078 0 0 0 0 0.364706 0 0 0 0.25 0"/>
<feBlend mode="normal" in2="effect1_dropShadow_4003_461" result="effect2_dropShadow_4003_461"/>
<feBlend mode="normal" in="SourceGraphic" in2="effect2_dropShadow_4003_461" result="shape"/>
</filter>
<filter id="filter3_dd_4003_461" x="17.3569" y="186.857" width="507" height="373" filterUnits="userSpaceOnUse" color-interpolation-filters="sRGB">
<feFlood flood-opacity="0" result="BackgroundImageFix"/>
<feColorMatrix in="SourceAlpha" type="matrix" values="0 0 0 0 0 0 0 0 0 0 0 0 0 0 0 0 0 0 127 0" result="hardAlpha"/>
<feMorphology radius="30" operator="erode" in="SourceAlpha" result="effect1_dropShadow_4003_461"/>
<feOffset dy="30"/>
<feGaussianBlur stdDeviation="30"/>
<feComposite in2="hardAlpha" operator="out"/>
<feColorMatrix type="matrix" values="0 0 0 0 0 0 0 0 0 0 0 0 0 0 0 0 0 0 0.3 0"/>
<feBlend mode="normal" in2="BackgroundImageFix" result="effect1_dropShadow_4003_461"/>
<feColorMatrix in="SourceAlpha" type="matrix" values="0 0 0 0 0 0 0 0 0 0 0 0 0 0 0 0 0 0 127 0" result="hardAlpha"/>
<feMorphology radius="20" operator="erode" in="SourceAlpha" result="effect2_dropShadow_4003_461"/>
<feOffset dy="50"/>
<feGaussianBlur stdDeviation="50"/>
<feComposite in2="hardAlpha" operator="out"/>
<feColorMatrix type="matrix" values="0 0 0 0 0.196078 0 0 0 0 0.196078 0 0 0 0 0.364706 0 0 0 0.25 0"/>
<feBlend mode="normal" in2="effect1_dropShadow_4003_461" result="effect2_dropShadow_4003_461"/>
<feBlend mode="normal" in="SourceGraphic" in2="effect2_dropShadow_4003_461" result="shape"/>
</filter>
<linearGradient id="paint0_linear_4003_461" x1="37.127" y1="119.857" x2="38.127" y2="119.857" gradientUnits="userSpaceOnUse">
<stop stop-color="#FF80FF"/>
<stop offset="1" stop-color="#0073E6"/>
</linearGradient>
<linearGradient id="paint1_linear_4003_461" x1="37.127" y1="303.857" x2="38.127" y2="303.857" gradientUnits="userSpaceOnUse">
<stop stop-color="#11EFE3"/>
<stop offset="1" stop-color="#0073E6"/>
</linearGradient>
<linearGradient id="paint2_linear_4003_461" x1="34.305" y1="400.15" x2="34.305" y2="407.533" gradientUnits="userSpaceOnUse">
<stop stop-color="#11EFE3"/>
<stop offset="0.33" stop-color="#15E8E2"/>
<stop offset="0.74" stop-color="#1FD3E0"/>
<stop offset="1" stop-color="#21CFE0"/>
</linearGradient>
<linearGradient id="paint3_linear_4003_461" x1="38.1216" y1="407.789" x2="38.1216" y2="414.07" gradientUnits="userSpaceOnUse">
<stop stop-color="#00299C"/>
<stop offset="1" stop-color="#0073E6"/>
</linearGradient>
<linearGradient id="paint4_linear_4003_461" x1="436.577" y1="145.387" x2="437.577" y2="145.387" gradientUnits="userSpaceOnUse">
<stop stop-color="#1DF5E9"/>
<stop offset="1" stop-color="#00D924"/>
</linearGradient>
<linearGradient id="paint5_linear_4003_461" x1="436.577" y1="175.857" x2="437.577" y2="175.857" gradientUnits="userSpaceOnUse">
<stop stop-color="#1DF5E9"/>
<stop offset="1" stop-color="#00D924"/>
</linearGradient>
<linearGradient id="paint6_linear_4003_461" x1="874.258" y1="91.5618" x2="863.146" y2="295.544" gradientUnits="userSpaceOnUse">
<stop offset="0.614583" stop-color="#27BB86"/>
<stop offset="1" stop-color="white"/>
</linearGradient>
<linearGradient id="paint7_linear_4003_461" x1="874.612" y1="99.1595" x2="863.499" y2="303.142" gradientUnits="userSpaceOnUse">
<stop offset="0.614583" stop-color="#27BB86"/>
<stop offset="1" stop-color="white"/>
</linearGradient>
<linearGradient id="paint8_linear_4003_461" x1="873.841" y1="85.7259" x2="862.729" y2="289.709" gradientUnits="userSpaceOnUse">
<stop offset="0.614583" stop-color="#27BB86"/>
<stop offset="1" stop-color="white"/>
</linearGradient>
<linearGradient id="paint9_linear_4003_461" x1="871.892" y1="78.6595" x2="860.78" y2="282.642" gradientUnits="userSpaceOnUse">
<stop offset="0.614583" stop-color="#27BB86"/>
<stop offset="1" stop-color="white"/>
</linearGradient>
<linearGradient id="paint10_linear_4003_461" x1="871.066" y1="72.4192" x2="859.953" y2="276.402" gradientUnits="userSpaceOnUse">
<stop offset="0.614583" stop-color="#27BB86"/>
<stop offset="1" stop-color="white"/>
</linearGradient>
<linearGradient id="paint11_linear_4003_461" x1="870.238" y1="66.181" x2="859.125" y2="270.163" gradientUnits="userSpaceOnUse">
<stop offset="0.614583" stop-color="#27BB86"/>
<stop offset="1" stop-color="white"/>
</linearGradient>
<linearGradient id="paint12_linear_4003_461" x1="878.684" y1="124.861" x2="867.572" y2="328.843" gradientUnits="userSpaceOnUse">
<stop offset="0.614583" stop-color="#27BB86"/>
<stop offset="1" stop-color="white"/>
</linearGradient>
<linearGradient id="paint13_linear_4003_461" x1="879.037" y1="132.458" x2="867.925" y2="336.441" gradientUnits="userSpaceOnUse">
<stop offset="0.614583" stop-color="#27BB86"/>
<stop offset="1" stop-color="white"/>
</linearGradient>
<linearGradient id="paint14_linear_4003_461" x1="878.267" y1="119.025" x2="867.155" y2="323.007" gradientUnits="userSpaceOnUse">
<stop offset="0.614583" stop-color="#27BB86"/>
<stop offset="1" stop-color="white"/>
</linearGradient>
<linearGradient id="paint15_linear_4003_461" x1="876.318" y1="111.958" x2="865.205" y2="315.941" gradientUnits="userSpaceOnUse">
<stop offset="0.614583" stop-color="#27BB86"/>
<stop offset="1" stop-color="white"/>
</linearGradient>
<linearGradient id="paint16_linear_4003_461" x1="875.492" y1="105.718" x2="864.379" y2="309.701" gradientUnits="userSpaceOnUse">
<stop offset="0.614583" stop-color="#27BB86"/>
<stop offset="1" stop-color="white"/>
</linearGradient>
<linearGradient id="paint17_linear_4003_461" x1="874.663" y1="99.4798" x2="863.551" y2="303.462" gradientUnits="userSpaceOnUse">
<stop offset="0.614583" stop-color="#27BB86"/>
<stop offset="1" stop-color="white"/>
</linearGradient>
</defs>
</svg>
