<svg width="1080" height="250" viewBox="0 0 1080 250" fill="none" xmlns="http://www.w3.org/2000/svg">
<path fill-rule="evenodd" clip-rule="evenodd" d="M146.58 33.9112C141.18 37.9012 133.37 40.0012 126.64 40.0012C117.645 40.0495 108.955 36.7404 102.27 30.7212C101.77 30.2712 102.22 29.6412 102.83 30.0012C110.252 34.2398 118.653 36.4666 127.2 36.4612C133.18 36.4612 139.75 35.2212 145.8 32.6612C146.7 32.2712 147.47 33.2612 146.58 33.9112Z" fill="#EFA82E"/>
<path fill-rule="evenodd" clip-rule="evenodd" d="M148.82 31.3607C148.13 30.4807 144.26 30.9407 142.52 31.1507C142 31.2107 141.92 30.7507 142.39 30.4207C145.48 28.2507 150.54 28.8807 151.12 29.6007C151.72 30.3407 150.97 35.4007 148.08 37.8107C147.63 38.1907 147.21 37.9907 147.41 37.5007C148.06 35.8707 149.51 32.2407 148.82 31.3607Z" fill="#EFA82E"/>
<path fill-rule="evenodd" clip-rule="evenodd" d="M142.65 15.1305V13.0305C142.65 12.7005 142.89 12.4905 143.18 12.4905H152.63C152.93 12.4905 153.17 12.7105 153.17 13.0205V14.8205C153.17 15.1205 152.91 15.5205 152.46 16.1505L147.56 23.1205C149.38 23.0805 151.3 23.3505 152.96 24.2805C153.32 24.4805 153.43 24.7905 153.46 25.1005V27.3405C153.46 27.6505 153.12 28.0105 152.76 27.8205C151.216 27.0281 149.504 26.6165 147.768 26.62C146.032 26.6235 144.322 27.042 142.78 27.8405C142.45 28.0105 142.11 27.6605 142.11 27.3505V25.2205C142.11 24.8805 142.11 24.2905 142.46 23.7705L148.13 15.6605H143.19C143.12 15.6619 143.05 15.6491 142.984 15.6231C142.919 15.5971 142.859 15.5582 142.809 15.5089C142.759 15.4595 142.719 15.4007 142.691 15.3357C142.664 15.2707 142.65 15.201 142.65 15.1305ZM108.2 28.2605H105.32C105.194 28.2519 105.074 28.1991 104.983 28.1114C104.892 28.0236 104.834 27.9065 104.82 27.7805V13.0605C104.82 12.7605 105.06 12.5305 105.37 12.5305H108.04C108.32 12.5405 108.54 12.7605 108.56 13.0305V14.9505H108.62C109.32 13.0905 110.62 12.2205 112.4 12.2205C114.2 12.2205 115.32 13.0905 116.13 14.9505C116.416 14.1347 116.953 13.4306 117.665 12.94C118.377 12.4493 119.226 12.1974 120.09 12.2205C121.29 12.2205 122.61 12.7205 123.42 13.8305C124.32 15.0705 124.14 16.8705 124.14 18.4505V27.7305C124.14 28.0305 123.89 28.2605 123.59 28.2605H120.72C120.584 28.2556 120.454 28.1992 120.358 28.1027C120.262 28.0063 120.205 27.8769 120.2 27.7405V19.9405C120.2 19.3105 120.26 17.7605 120.12 17.1805C119.9 16.1805 119.26 15.9105 118.43 15.9105C117.73 15.9105 117.01 16.3705 116.71 17.1105C116.42 17.8605 116.45 19.1005 116.45 19.9305V27.7305C116.45 28.0305 116.2 28.2605 115.89 28.2605H113.02C112.886 28.2531 112.759 28.1957 112.664 28.0995C112.57 28.0033 112.515 27.8752 112.51 27.7405V19.9405C112.51 18.2905 112.77 15.8805 110.74 15.8805C108.67 15.8805 108.75 18.2305 108.75 19.9305V27.7305C108.75 28.0305 108.5 28.2605 108.2 28.2605ZM161.31 15.2305C159.2 15.2305 159.06 18.1105 159.06 19.9005C159.06 21.7005 159.04 25.5405 161.29 25.5405C163.51 25.5405 163.62 22.4405 163.62 20.5505C163.62 19.3105 163.57 17.8305 163.19 16.6505C162.87 15.6305 162.23 15.2305 161.31 15.2305ZM161.29 12.2205C165.55 12.2205 167.86 15.8805 167.86 20.5205C167.86 25.0205 165.31 28.5705 161.29 28.5705C157.1 28.5705 154.83 24.9205 154.83 20.3705C154.83 15.7805 157.13 12.2205 161.29 12.2205ZM173.39 28.2605H170.52C170.386 28.2531 170.259 28.1957 170.164 28.0995C170.07 28.0033 170.015 27.8752 170.01 27.7405V13.0005C170.027 12.8671 170.093 12.7446 170.194 12.6561C170.295 12.5677 170.426 12.5195 170.56 12.5205H173.22C173.47 12.5305 173.68 12.7005 173.73 12.9305V15.1805H173.78C174.59 13.1705 175.72 12.2105 177.7 12.2105C178.99 12.2105 180.25 12.6805 181.05 13.9505C181.8 15.1205 181.8 17.1105 181.8 18.5305V27.7905C181.779 27.9203 181.711 28.0381 181.61 28.1225C181.51 28.2069 181.382 28.2523 181.25 28.2505H178.37C178.247 28.2427 178.13 28.1928 178.039 28.109C177.948 28.0253 177.888 27.9129 177.87 27.7905V19.7905C177.87 18.1905 178.05 15.8405 176.07 15.8405C175.37 15.8405 174.72 16.3005 174.4 17.0105C174 17.9105 173.94 18.8105 173.94 19.8005V27.7205C173.94 28.0205 173.69 28.2505 173.39 28.2505M138.01 28.2205C137.916 28.2985 137.801 28.346 137.68 28.3567C137.558 28.3674 137.436 28.3408 137.33 28.2805C136.37 27.4905 136.2 27.1305 135.68 26.3805C134.11 27.9805 132.98 28.4605 130.95 28.4605C128.53 28.4605 126.65 26.9605 126.65 23.9905C126.616 22.9889 126.891 22.0011 127.439 21.1617C127.986 20.3224 128.78 19.6724 129.71 19.3005C131.27 18.6205 133.45 18.5005 135.11 18.3005V17.9405C135.11 17.2505 135.17 16.4405 134.76 15.8605C134.41 15.3305 133.74 15.1105 133.15 15.1105C132.05 15.1105 131.08 15.6705 130.84 16.8305C130.79 17.0905 130.6 17.3505 130.34 17.3605L127.56 17.0605C127.32 17.0105 127.06 16.8205 127.13 16.4605C127.77 13.0905 130.82 12.0605 133.55 12.0605C134.95 12.0605 136.78 12.4405 137.88 13.5005C139.28 14.8005 139.14 16.5405 139.14 18.4305V22.9005C139.14 24.2405 139.7 24.8305 140.23 25.5605C140.41 25.8205 140.45 26.1305 140.22 26.3205C139.63 26.8105 138.59 27.7205 138.02 28.2205H138.01ZM135.11 21.2205C135.11 22.3405 135.14 23.2705 134.57 24.2705C134.12 25.0705 133.39 25.5705 132.59 25.5705C131.49 25.5705 130.84 24.7305 130.84 23.4905C130.84 21.0505 133.04 20.6105 135.11 20.6105V21.2205ZM100.35 28.2205C100.256 28.2985 100.141 28.346 100.02 28.3567C99.8981 28.3674 99.7762 28.3408 99.6702 28.2805C98.7202 27.4905 98.5502 27.1305 98.0202 26.3805C96.4502 27.9805 95.3302 28.4605 93.2902 28.4605C90.8702 28.4605 88.9902 26.9605 88.9902 23.9905C88.9557 22.9889 89.231 22.0011 89.7787 21.1617C90.3263 20.3224 91.1195 19.6724 92.0502 19.3005C93.6102 18.6205 95.7902 18.5005 97.4502 18.3005V17.9405C97.4502 17.2505 97.5102 16.4405 97.1002 15.8605C96.7602 15.3305 96.0802 15.1105 95.5002 15.1105C94.4002 15.1105 93.4202 15.6705 93.1802 16.8305C93.1302 17.0905 92.9402 17.3505 92.6802 17.3605L89.9002 17.0605C89.6702 17.0105 89.4002 16.8205 89.4702 16.4605C90.1102 13.0905 93.1702 12.0605 95.9002 12.0605C97.3002 12.0605 99.1202 12.4405 100.22 13.5005C101.62 14.8005 101.49 16.5405 101.49 18.4305V22.9005C101.49 24.2405 102.04 24.8305 102.57 25.5605C102.75 25.8205 102.79 26.1305 102.56 26.3205C101.97 26.8105 100.93 27.7205 100.36 28.2205H100.35ZM97.4502 21.2205C97.4502 22.3405 97.4802 23.2705 96.9202 24.2705C96.4602 25.0705 95.7402 25.5705 94.9202 25.5705C93.8202 25.5705 93.1802 24.7305 93.1802 23.4905C93.1802 21.0505 95.3802 20.6105 97.4602 20.6105V21.2205H97.4502Z" fill="#1B1A19"/>
<path d="M399.78 4.374C401.626 2.462 404.198 1.253 407.033 1.253C410.813 1.253 414.088 3.363 415.846 6.483C417.416 5.78284 419.116 5.42361 420.835 5.429C427.648 5.429 433.143 10.989 433.143 17.846C433.143 24.703 427.626 30.264 420.835 30.264C420.023 30.263 419.214 30.1819 418.418 30.022C417.635 31.4216 416.494 32.5871 415.11 33.3983C413.727 34.2095 412.153 34.6371 410.549 34.637C409.187 34.6361 407.842 34.3285 406.615 33.737C405.055 37.407 401.407 40 397.165 40C392.747 40 388.967 37.209 387.516 33.275C386.872 33.4072 386.217 33.4736 385.56 33.473C380.286 33.473 376.022 29.165 376.022 23.824C376.018 22.1366 376.457 20.4777 377.294 19.0125C378.131 17.5474 379.337 16.327 380.792 15.473C380.179 14.0811 379.864 12.5761 379.868 11.055C379.846 4.967 384.835 0 390.945 0C394.549 0 397.758 1.714 399.78 4.374Z" fill="#00A1E0"/>
<path d="M384.286 20.747L384.528 20.11C384.572 20 384.638 20.044 384.681 20.066C384.747 20.11 384.791 20.132 384.879 20.198C385.561 20.638 386.198 20.638 386.396 20.638C386.901 20.638 387.231 20.374 387.231 20V19.978C387.231 19.582 386.747 19.428 386.176 19.253L386.044 19.209C385.274 18.989 384.44 18.659 384.44 17.692V17.67C384.44 16.747 385.187 16.088 386.264 16.088H386.374C387.011 16.088 387.604 16.264 388.044 16.549C388.088 16.571 388.132 16.615 388.11 16.681C388.088 16.747 387.89 17.253 387.868 17.319C387.824 17.429 387.714 17.363 387.714 17.363C387.252 17.1237 386.74 16.9957 386.22 16.989C385.758 16.989 385.473 17.231 385.473 17.56V17.582C385.473 17.956 385.978 18.132 386.55 18.308L386.66 18.33C387.429 18.571 388.242 18.901 388.242 19.846V19.868C388.242 20.879 387.517 21.495 386.352 21.495C385.78 21.495 385.231 21.407 384.637 21.099C384.527 21.033 384.417 20.989 384.307 20.901C384.286 20.857 384.242 20.835 384.286 20.747ZM401.429 20.747L401.67 20.11C401.714 20 401.802 20.044 401.824 20.066C401.89 20.11 401.934 20.132 402.022 20.198C402.703 20.638 403.341 20.638 403.539 20.638C404.044 20.638 404.374 20.374 404.374 20V19.978C404.374 19.582 403.89 19.428 403.319 19.253L403.187 19.209C402.417 18.989 401.583 18.659 401.583 17.692V17.67C401.583 16.747 402.33 16.088 403.407 16.088H403.517C404.154 16.088 404.747 16.264 405.187 16.549C405.231 16.571 405.275 16.615 405.253 16.681C405.231 16.747 405.033 17.253 405.011 17.319C404.967 17.429 404.857 17.363 404.857 17.363C404.395 17.1237 403.883 16.9957 403.363 16.989C402.901 16.989 402.616 17.231 402.616 17.56V17.582C402.616 17.956 403.121 18.132 403.692 18.308L403.802 18.33C404.572 18.571 405.385 18.901 405.385 19.846V19.868C405.385 20.879 404.659 21.495 403.495 21.495C402.923 21.495 402.374 21.407 401.78 21.099C401.67 21.033 401.56 20.989 401.45 20.901C401.45 20.857 401.407 20.835 401.429 20.747ZM414.132 17.737C414.22 18.066 414.286 18.417 414.286 18.791C414.286 19.165 414.242 19.516 414.132 19.846C414.044 20.176 413.89 20.461 413.692 20.703C413.495 20.945 413.231 21.143 412.945 21.275C412.61 21.4122 412.251 21.4796 411.89 21.473C411.495 21.473 411.143 21.407 410.835 21.275C410.543 21.1482 410.286 20.9518 410.088 20.703C409.882 20.4523 409.732 20.16 409.649 19.846C409.552 19.5026 409.5 19.1479 409.495 18.791C409.495 18.418 409.539 18.066 409.649 17.736C409.736 17.406 409.89 17.121 410.088 16.879C410.286 16.637 410.55 16.439 410.835 16.308C411.143 16.176 411.495 16.088 411.89 16.088C412.286 16.088 412.638 16.154 412.945 16.308C413.253 16.44 413.495 16.638 413.692 16.879C413.89 17.121 414.044 17.408 414.132 17.737ZM413.143 18.769C413.143 18.198 413.033 17.759 412.835 17.451C412.638 17.143 412.308 16.989 411.89 16.989C411.451 16.989 411.143 17.143 410.945 17.451C410.747 17.758 410.638 18.198 410.638 18.769C410.638 19.341 410.747 19.78 410.945 20.109C411.143 20.418 411.451 20.571 411.89 20.571C412.33 20.571 412.638 20.418 412.835 20.11C413.055 19.802 413.143 19.34 413.143 18.77V18.769ZM422.176 20.418L422.418 21.077C422.44 21.165 422.374 21.187 422.374 21.187C422 21.341 421.495 21.429 420.989 21.429C420.132 21.429 419.495 21.187 419.055 20.703C418.616 20.22 418.396 19.56 418.396 18.747C418.396 18.374 418.44 18.022 418.55 17.692C418.66 17.362 418.813 17.077 419.033 16.835C419.253 16.593 419.517 16.395 419.824 16.264C420.172 16.1173 420.546 16.0425 420.923 16.044C421.209 16.044 421.451 16.066 421.649 16.088C421.868 16.132 422.176 16.198 422.308 16.264C422.33 16.264 422.396 16.308 422.374 16.374C422.286 16.637 422.22 16.814 422.132 17.033C422.088 17.143 422.022 17.099 422.022 17.099C421.689 16.9894 421.34 16.9373 420.989 16.945C420.506 16.945 420.132 17.099 419.912 17.429C419.671 17.736 419.539 18.154 419.539 18.725C419.539 19.341 419.692 19.78 419.956 20.065C420.22 20.352 420.594 20.484 421.077 20.484C421.275 20.484 421.451 20.462 421.605 20.44C421.758 20.418 421.912 20.374 422.066 20.308C422.044 20.352 422.132 20.33 422.176 20.418ZM427.165 17.538C427.385 18.286 427.275 18.923 427.253 18.967C427.253 19.055 427.165 19.055 427.165 19.055H423.846C423.868 19.56 423.978 19.912 424.242 20.154C424.484 20.396 424.857 20.549 425.385 20.549C426.176 20.549 426.506 20.396 426.747 20.308C426.747 20.308 426.835 20.286 426.879 20.374L427.099 20.989C427.143 21.099 427.099 21.121 427.077 21.143C426.879 21.253 426.374 21.473 425.407 21.473C424.945 21.473 424.528 21.407 424.198 21.275C423.881 21.1577 423.596 20.9696 423.363 20.725C423.148 20.4816 422.983 20.1977 422.879 19.89C422.771 19.549 422.719 19.1927 422.725 18.835C422.725 18.461 422.769 18.11 422.879 17.78C422.967 17.45 423.121 17.165 423.319 16.923C423.517 16.681 423.78 16.483 424.088 16.352C424.396 16.198 424.769 16.132 425.187 16.132C425.539 16.132 425.868 16.198 426.132 16.33C426.33 16.418 426.55 16.571 426.769 16.813C426.879 16.901 427.077 17.23 427.165 17.538ZM423.868 18.242H426.22C426.198 17.934 426.132 17.67 426 17.451C425.802 17.143 425.517 16.967 425.077 16.967C424.638 16.967 424.33 17.143 424.132 17.451C424 17.648 423.934 17.912 423.868 18.241V18.242ZM400.638 17.538C400.858 18.286 400.748 18.923 400.748 18.967C400.748 19.055 400.659 19.055 400.659 19.055H397.341C397.363 19.56 397.473 19.912 397.736 20.154C397.978 20.396 398.352 20.549 398.879 20.549C399.67 20.549 400 20.396 400.242 20.308C400.242 20.308 400.33 20.286 400.374 20.374L400.594 20.989C400.637 21.099 400.594 21.121 400.572 21.143C400.374 21.253 399.868 21.473 398.902 21.473C398.44 21.473 398.022 21.407 397.692 21.275C397.375 21.1577 397.09 20.9696 396.857 20.725C396.642 20.4815 396.478 20.1976 396.374 19.89C396.266 19.549 396.214 19.1927 396.22 18.835C396.22 18.461 396.264 18.11 396.374 17.78C396.462 17.45 396.616 17.165 396.814 16.923C397.011 16.681 397.274 16.483 397.583 16.352C397.89 16.198 398.263 16.132 398.681 16.132C399.033 16.132 399.363 16.198 399.627 16.33C399.824 16.418 400.044 16.571 400.264 16.813C400.352 16.901 400.572 17.231 400.637 17.539L400.638 17.538ZM397.341 18.242H399.714C399.692 17.934 399.627 17.67 399.494 17.451C399.297 17.143 399.011 16.967 398.572 16.967C398.132 16.967 397.824 17.143 397.627 17.451C397.473 17.648 397.407 17.912 397.341 18.241V18.242ZM391.517 18.066C391.517 18.066 391.78 18.088 392.067 18.132V18C392.067 17.56 391.978 17.34 391.802 17.209C391.627 17.077 391.341 16.989 390.989 16.989C390.989 16.989 390.176 16.989 389.539 17.319C389.517 17.341 389.495 17.341 389.495 17.341C389.495 17.341 389.407 17.363 389.385 17.297L389.143 16.659C389.099 16.571 389.165 16.527 389.165 16.527C389.473 16.286 390.176 16.154 390.176 16.154C390.467 16.1029 390.761 16.0735 391.056 16.066C391.715 16.066 392.22 16.22 392.572 16.528C392.923 16.835 393.099 17.318 393.099 18V21.033C393.099 21.033 393.099 21.121 393.033 21.143C393.033 21.143 392.901 21.187 392.791 21.209C392.681 21.231 392.286 21.319 391.956 21.363C391.626 21.429 391.296 21.451 390.946 21.451C390.616 21.451 390.33 21.429 390.066 21.363C389.824 21.3083 389.593 21.2114 389.385 21.077C389.199 20.9377 389.048 20.7569 388.945 20.549C388.835 20.352 388.791 20.088 388.791 19.802C388.791 19.517 388.857 19.252 388.967 19.033C389.077 18.813 389.253 18.637 389.451 18.483C389.649 18.33 389.891 18.242 390.132 18.153C390.397 18.083 390.67 18.0464 390.945 18.044C391.209 18.066 391.385 18.066 391.517 18.066ZM390.198 20.396C390.198 20.396 390.506 20.637 391.165 20.593C391.648 20.571 392.066 20.483 392.066 20.483V18.967C392.066 18.967 391.648 18.901 391.165 18.901C390.484 18.901 390.198 19.143 390.198 19.143C390 19.275 389.912 19.495 389.912 19.78C389.912 19.956 389.956 20.11 390.022 20.22C390.044 20.264 390.066 20.308 390.198 20.396ZM418.22 16.374C418.198 16.461 418.022 16.924 417.978 17.077C417.956 17.143 417.912 17.165 417.846 17.165C417.846 17.165 417.649 17.121 417.473 17.121C417.363 17.121 417.187 17.143 417.033 17.187C416.878 17.2371 416.736 17.3196 416.616 17.429C416.484 17.539 416.396 17.714 416.33 17.912C416.264 18.11 416.22 18.44 416.22 18.792V21.252C416.22 21.319 416.176 21.362 416.11 21.362H415.231C415.165 21.362 415.121 21.319 415.121 21.252V16.308C415.121 16.242 415.165 16.198 415.209 16.198H416.066C416.132 16.198 416.154 16.242 416.154 16.308V16.703C416.286 16.527 416.506 16.373 416.703 16.286C416.901 16.198 417.143 16.132 417.561 16.154C417.78 16.176 418.066 16.22 418.11 16.242C418.198 16.264 418.242 16.286 418.22 16.374ZM410.066 14.088C410.088 14.088 410.154 14.132 410.132 14.198L409.868 14.901C409.846 14.945 409.824 14.989 409.714 14.945C409.692 14.945 409.649 14.923 409.539 14.901C409.473 14.879 409.363 14.879 409.275 14.879C409.156 14.8814 409.038 14.8962 408.923 14.923C408.812 14.9512 408.713 15.0126 408.638 15.099C408.535 15.1991 408.453 15.3183 408.396 15.45C408.308 15.6916 408.249 15.9426 408.22 16.198H409.275C409.363 16.198 409.385 16.242 409.385 16.308L409.253 16.989C409.231 17.099 409.143 17.077 409.143 17.077H408.044L407.341 21.319C407.253 21.759 407.165 22.132 407.055 22.439C406.945 22.747 406.813 22.967 406.616 23.187C406.44 23.385 406.242 23.538 406 23.604C405.78 23.692 405.495 23.736 405.187 23.736C405.033 23.736 404.879 23.736 404.703 23.692C404.597 23.6758 404.494 23.6462 404.396 23.604C404.352 23.582 404.33 23.538 404.352 23.472C404.374 23.407 404.572 22.879 404.594 22.792C404.637 22.703 404.704 22.747 404.704 22.747C404.769 22.769 404.814 22.791 404.879 22.813C404.967 22.835 405.055 22.835 405.143 22.835C405.297 22.835 405.429 22.813 405.539 22.769C405.671 22.725 405.758 22.637 405.846 22.527C405.934 22.417 406 22.264 406.088 22.066C406.169 21.799 406.235 21.5275 406.286 21.253L407.033 17.099H406.308C406.22 17.099 406.198 17.055 406.198 16.989L406.33 16.308C406.352 16.198 406.44 16.22 406.44 16.22H407.187L407.231 16C407.341 15.34 407.561 14.835 407.89 14.505C408.22 14.175 408.703 14 409.297 14C409.473 14 409.627 14.022 409.758 14.044C409.863 14.0274 409.97 14.0427 410.066 14.088ZM395.253 21.23C395.253 21.296 395.209 21.34 395.165 21.34H394.285C394.22 21.34 394.198 21.296 394.198 21.23V14.175C394.198 14.131 394.242 14.065 394.286 14.065H395.165C395.231 14.065 395.253 14.109 395.253 14.175V21.23Z" fill="white"/>
<path d="M667.6 21.6509C667.614 22.7577 667.405 23.8559 666.987 24.8807C666.569 25.9055 665.949 26.836 665.165 27.6172C664.381 28.3985 663.448 29.0146 662.422 29.4292C661.396 29.8438 660.297 30.0484 659.19 30.0309C658.084 30.047 656.986 29.8414 655.961 29.4262C654.936 29.0111 654.005 28.3947 653.222 27.6136C652.439 26.8325 651.82 25.9024 651.402 24.8783C650.985 23.8542 650.777 22.7568 650.79 21.6509C650.772 20.5439 650.978 19.4446 651.394 18.4186C651.81 17.3926 652.429 16.4609 653.212 15.679C653.996 14.897 654.929 14.2808 655.956 13.8671C656.983 13.4534 658.083 13.2506 659.19 13.2709C663.82 13.2709 667.59 16.7909 667.59 21.6509H667.6ZM663.91 21.6509C663.91 18.6309 661.72 16.5709 659.19 16.5709C656.65 16.5709 654.46 18.6309 654.46 21.6509C654.46 24.6309 656.65 26.7209 659.19 26.7209C661.72 26.7209 663.91 24.6209 663.91 21.6509Z" fill="#EA4335"/>
<path d="M685.73 21.6507C685.743 22.7575 685.535 23.8557 685.117 24.8805C684.698 25.9053 684.079 26.8358 683.295 27.6171C682.511 28.3983 681.578 29.0144 680.552 29.429C679.526 29.8436 678.427 30.0482 677.32 30.0307C676.214 30.0468 675.116 29.8412 674.091 29.4261C673.066 29.0109 672.134 28.3945 671.351 27.6134C670.568 26.8323 669.95 25.9022 669.532 24.8781C669.115 23.854 668.906 22.7566 668.92 21.6507C668.904 20.5441 669.11 19.4454 669.527 18.4201C669.943 17.3947 670.562 16.4635 671.345 15.6819C672.129 14.9002 673.061 14.284 674.088 13.8698C675.114 13.4556 676.213 13.2519 677.32 13.2707C681.95 13.2707 685.72 16.7907 685.72 21.6507H685.73ZM682.05 21.6507C682.05 18.6307 679.85 16.5707 677.32 16.5707C674.78 16.5707 672.59 18.6307 672.59 21.6507C672.59 24.6307 674.79 26.7207 677.32 26.7207C679.86 26.7207 682.05 24.6207 682.05 21.6507Z" fill="#FBBC05"/>
<path d="M703.1 13.7695V28.8195C703.1 34.9995 699.45 37.5295 695.14 37.5295C693.55 37.5398 691.994 37.0751 690.67 36.195C689.346 35.3148 688.316 34.0593 687.71 32.5895L690.91 31.2595C691.24 32.119 691.819 32.8607 692.572 33.3897C693.326 33.9187 694.22 34.2111 695.14 34.2295C697.9 34.2295 699.61 32.5295 699.61 29.3295V28.1195H699.48C698.927 28.738 698.247 29.2284 697.485 29.5566C696.723 29.8847 695.899 30.0427 695.07 30.0195C690.87 30.0195 687.04 26.3695 687.04 21.6795C687.04 16.9495 690.88 13.2695 695.07 13.2695C697.07 13.2695 698.65 14.1495 699.48 15.1395H699.61V13.7795H703.11L703.1 13.7695ZM699.87 21.6695C699.87 18.7295 697.9 16.5695 695.4 16.5695C692.86 16.5695 690.73 18.7295 690.73 21.6695C690.73 24.5995 692.86 26.7195 695.4 26.7195C697.9 26.7195 699.87 24.5995 699.87 21.6795V21.6695Z" fill="#4285F4"/>
<path d="M708.86 4.96094V29.5009H705.27V4.96094H708.86Z" fill="#34A853"/>
<path d="M722.85 24.3998L725.71 26.2998C724.945 27.4505 723.905 28.3929 722.685 29.0422C721.465 29.6915 720.102 30.0275 718.72 30.0198C717.619 30.0348 716.526 29.8278 715.506 29.4111C714.486 28.9944 713.561 28.3766 712.786 27.5944C712.01 26.8123 711.4 25.8819 710.992 24.8589C710.584 23.8358 710.386 22.741 710.41 21.6398C710.41 16.6598 713.99 13.2598 718.31 13.2598C722.66 13.2598 724.79 16.7198 725.48 18.5898L725.86 19.5498L714.66 24.1798C715.004 24.9613 715.576 25.6214 716.299 26.0743C717.023 26.5272 717.867 26.7521 718.72 26.7198C720.6 26.7198 721.9 25.7998 722.85 24.3998ZM714.05 21.3898L721.55 18.2798C721.13 17.2298 719.9 16.4998 718.44 16.4998C717.83 16.5277 717.231 16.6771 716.679 16.9391C716.126 17.2012 715.632 17.5706 715.224 18.0258C714.816 18.4811 714.504 19.0131 714.304 19.5906C714.104 20.1682 714.021 20.7798 714.06 21.3898H714.05Z" fill="#EA4335"/>
<path d="M637.2 19.47V15.9H649.18C649.29 16.52 649.35 17.25 649.35 18.05C649.35 20.71 648.62 24.01 646.27 26.36C643.99 28.74 641.07 30.01 637.2 30.01C630.03 30.01 624 24.17 624 17.01C624 9.83 630.03 4 637.2 4C641.17 4 644 5.56 646.12 7.59L643.61 10.09C641.892 8.43162 639.588 7.51877 637.2 7.55C635.963 7.54855 634.738 7.79314 633.596 8.26954C632.455 8.74593 631.419 9.44461 630.55 10.3249C629.681 11.2053 628.995 12.2496 628.533 13.3973C628.072 14.545 627.843 15.773 627.86 17.01C627.86 22.25 631.96 26.47 637.2 26.47C638.416 26.5203 639.629 26.3149 640.761 25.867C641.893 25.4192 642.918 24.7388 643.77 23.87C644.77 22.86 645.43 21.42 645.69 19.47H637.19H637.2Z" fill="#4285F4"/>
<path fill-rule="evenodd" clip-rule="evenodd" d="M922 40H967.697V0H922V40ZM943.872 12.354C943.848 14.11 943.848 15.772 942.363 17.317C940.557 19.214 937.193 19.845 934.546 19.845C933.306 19.8529 932.07 19.7197 930.86 19.448C930.02 19.261 928.931 18.933 927.843 18.254C925.096 16.498 925.073 14.32 925.073 12.354V2.756H929.426V12.472C929.426 13.946 929.747 15.186 931.405 15.936C932.815 16.569 934.076 16.522 935.363 16.475C937.02 16.333 938.084 15.912 938.777 15.164C939.197 14.695 939.569 14.157 939.518 12.494V2.756H943.873L943.872 12.354ZM944.036 32.454C944.036 33.413 943.803 34.42 943.21 35.239C941.793 37.183 939.447 37.183 937.669 37.205H925.165V20.68H936.972C938.854 20.726 941.148 20.773 942.386 22.388C943.03 23.231 943.108 24.144 943.108 24.729C943.108 25.174 943.056 26.111 942.386 26.929C941.638 27.819 940.659 28.1 940.092 28.24C941.226 28.522 944.036 29.153 944.036 32.455V32.454ZM959.395 12.378L964.689 19.283H959.544L954.868 12.635H949.896V19.283H945.517V2.756H957.539C959.519 2.756 961.324 2.92 962.784 4.512C963.675 5.495 963.922 6.736 963.922 7.696C963.922 8.96 963.477 10.459 962.24 11.348C961.3 12.027 960.087 12.26 959.395 12.378ZM964.788 37.231H960.459L951.801 27.914C951.024 27.0711 950.274 26.2047 949.55 25.316C949.674 26.58 949.674 26.861 949.698 28.125V37.231H945.543V20.704H949.897L958.455 29.904C959.494 31.051 959.692 31.286 960.781 32.574C960.633 31.004 960.633 30.583 960.608 29.155V20.704H964.788V37.231ZM959.494 7.743C959.494 7.415 959.444 6.853 959.148 6.455C958.826 6.057 958.405 5.659 956.674 5.659H949.896V9.709H956.872C957.811 9.709 959.494 9.592 959.494 7.743ZM939.473 32.055C939.473 30.065 937.746 30.065 937.076 30.065H929.677V34.303H936.509C937.539 34.303 939.473 34.326 939.473 32.055ZM938.751 25.337C938.751 23.581 937.281 23.557 936.559 23.557H929.677V27.187H936.199C936.74 27.187 937.255 27.163 937.669 27.022C938.751 26.624 938.751 25.524 938.751 25.337Z" fill="black"/>
<path d="M101.246 108.156C101.363 108.176 101.519 108.254 101.539 108.43C101.559 108.586 105.154 132.914 105.154 132.914L96.341 135.101L76 131.585C76 131.585 78.423 112.807 78.52 112.162C78.638 111.282 78.677 111.263 79.595 110.97C79.609 110.956 80.265 110.754 81.304 110.435L82.741 109.993C82.937 108.586 83.621 106.769 84.539 105.323C85.849 103.252 87.431 102.099 89.033 102.06C89.854 102.04 90.538 102.314 91.085 102.9C91.125 102.958 91.163 102.998 91.202 103.037C91.281 103.017 91.378 103.017 91.456 103.017C92.706 103.017 93.723 103.721 94.426 105.069C94.641 105.479 94.798 105.889 94.896 106.222L95.892 105.909C96.048 105.869 96.419 105.811 96.615 106.007C96.81 106.202 98.784 108.117 98.784 108.117C98.784 108.117 101.129 108.137 101.246 108.157V108.156ZM93.088 106.778C93.368 106.69 93.632 106.606 93.879 106.534C93.625 105.714 93.039 104.346 91.808 104.111C92.179 105.088 92.277 106.221 92.297 107.023C92.573 106.94 92.838 106.857 93.088 106.778ZM90.418 107.609L91.241 107.355C91.241 106.475 91.163 105.166 90.714 104.248C90.244 104.444 89.854 104.776 89.561 105.088C88.799 105.909 88.174 107.16 87.841 108.41C88.6989 108.139 89.5579 107.872 90.418 107.609ZM90.01 103.389C89.737 103.212 89.424 103.134 89.053 103.134C86.591 103.212 84.441 107.062 83.855 109.641L84.111 109.561C84.915 109.311 85.766 109.046 86.649 108.781C86.962 107.141 87.744 105.46 88.759 104.365C89.151 103.935 89.581 103.604 90.01 103.389ZM90.44 116.519L91.456 112.689C91.456 112.689 90.577 112.24 88.818 112.396C84.344 112.689 82.312 115.816 82.507 118.903C82.639 120.954 83.854 121.817 84.919 122.573C85.751 123.164 86.492 123.69 86.552 124.668C86.591 125.215 86.259 125.977 85.321 126.035C83.894 126.114 82.097 124.765 82.097 124.765L81.413 127.677C81.413 127.677 83.191 129.572 86.435 129.377C89.131 129.201 91.007 127.051 90.812 123.886C90.658 121.464 88.955 120.371 87.606 119.505C86.723 118.939 85.992 118.469 85.946 117.789C85.926 117.457 85.946 116.207 87.939 116.089C88.7945 116.04 89.65 116.187 90.44 116.519Z" fill="#95BF47"/>
<path d="M101.25 108.161C101.13 108.141 98.7798 108.121 98.7798 108.121L96.6098 106.001C96.5391 105.927 96.4421 105.884 96.3398 105.881V135.101L105.15 132.911C105.15 132.911 101.55 108.611 101.54 108.431C101.524 108.36 101.486 108.297 101.433 108.248C101.379 108.2 101.312 108.169 101.24 108.161H101.25Z" fill="#5E8E3E"/>
<path d="M91.4602 112.69L90.4402 116.52C90.4402 116.52 89.3102 115.99 87.9402 116.09C85.9402 116.21 85.9302 117.46 85.9402 117.79C86.0602 119.51 90.5602 119.88 90.8102 123.89C91.0102 127.05 89.1302 129.2 86.4302 129.38C85.5213 129.459 84.6058 129.349 83.7417 129.057C82.8776 128.764 82.0837 128.295 81.4102 127.68L82.1002 124.76C82.1002 124.76 83.9002 126.11 85.3202 126.03C85.4918 126.026 85.661 125.987 85.8172 125.916C85.9735 125.845 86.1135 125.742 86.2286 125.615C86.3438 125.488 86.4318 125.338 86.4871 125.176C86.5424 125.013 86.5638 124.841 86.5502 124.67C86.4102 122.44 82.7502 122.56 82.5102 118.9C82.3102 115.81 84.3402 112.69 88.8102 112.4C90.5802 112.24 91.4602 112.69 91.4602 112.69Z" fill="white"/>
<path d="M117.1 120.86C116.08 120.31 115.55 119.84 115.55 119.2C115.55 118.37 116.27 117.85 117.43 117.85C118.75 117.85 119.93 118.39 119.93 118.39L120.86 115.54C120.86 115.54 120 114.88 117.48 114.88C113.97 114.88 111.52 116.89 111.52 119.72C111.52 121.32 112.66 122.56 114.18 123.44C115.41 124.14 115.84 124.63 115.84 125.37C115.84 126.13 115.24 126.74 114.08 126.74C112.38 126.74 110.78 125.86 110.78 125.86L109.78 128.71C109.78 128.71 111.27 129.71 113.75 129.71C117.37 129.71 119.97 127.93 119.97 124.73C119.99 122.99 118.67 121.76 117.09 120.86H117.1ZM131.51 114.84C129.74 114.84 128.33 115.68 127.25 116.97L127.2 116.95L128.74 108.85H124.7L120.8 129.43H124.82L126.17 122.4C126.7 119.74 128.07 118.1 129.35 118.1C130.25 118.1 130.6 118.7 130.6 119.59C130.6 120.13 130.55 120.82 130.43 121.36L128.9 129.41H132.93L134.51 121.09C134.69 120.21 134.81 119.16 134.81 118.47C134.81 116.23 133.59 114.84 131.51 114.84ZM143.92 114.84C139.08 114.84 135.87 119.21 135.87 124.1C135.87 127.23 137.81 129.73 141.42 129.73C146.17 129.73 149.39 125.47 149.39 120.47C149.37 117.59 147.67 114.84 143.92 114.84ZM141.92 126.64C140.56 126.64 139.97 125.47 139.97 124.02C139.97 121.72 141.17 117.94 143.36 117.94C144.78 117.94 145.26 119.18 145.26 120.37C145.26 122.85 144.06 126.64 141.93 126.64H141.92ZM159.67 114.84C156.96 114.84 155.41 117.22 155.41 117.22H155.35L155.59 115.05H152.03C151.818 116.839 151.545 118.62 151.21 120.39L148.41 135.12H152.44L153.56 129.16H153.63C153.63 129.16 154.45 129.69 156 129.69C160.73 129.69 163.81 124.84 163.81 119.94C163.83 117.26 162.62 114.84 159.67 114.84ZM155.82 126.7C154.77 126.7 154.16 126.11 154.16 126.11L154.83 122.34C155.29 119.84 156.6 118.16 158.01 118.16C159.24 118.16 159.61 119.29 159.61 120.39C159.61 122.99 158.07 126.69 155.82 126.69V126.7ZM169.58 109.07C169.273 109.07 168.97 109.131 168.688 109.25C168.406 109.369 168.15 109.543 167.936 109.762C167.721 109.98 167.553 110.24 167.44 110.525C167.328 110.81 167.273 111.114 167.28 111.42C167.28 112.61 168.03 113.43 169.17 113.43H169.23C170.48 113.43 171.57 112.59 171.59 111.09C171.59 109.91 170.81 109.07 169.58 109.07ZM163.95 129.43H167.98L170.71 115.17H166.65L163.95 129.43ZM180.95 115.13H178.15L178.29 114.47C178.53 113.1 179.35 111.87 180.68 111.87C181.4 111.87 181.97 112.07 181.97 112.07L182.75 108.92C182.75 108.92 182.05 108.57 180.56 108.57C179.13 108.57 177.71 108.97 176.61 109.91C175.24 111.09 174.6 112.77 174.27 114.47L174.15 115.13H172.27L171.69 118.16H173.56L171.43 129.43H175.46L177.59 118.16H180.36L180.96 115.13H180.95ZM190.65 115.17C190.65 115.17 188.12 121.52 186.99 124.97H186.93C186.85 123.87 185.93 115.17 185.93 115.17H181.71L184.14 128.28C184.19 128.58 184.16 128.75 184.06 128.95C183.529 129.92 182.775 130.75 181.86 131.37C181.11 131.92 180.26 132.27 179.58 132.5L180.7 135.92C181.52 135.75 183.2 135.08 184.64 133.73C186.48 132.01 188.18 129.36 189.92 125.74L194.84 115.17H190.64H190.65Z" fill="black"/>
<path d="M354.99 105C346.797 105 340.128 111.668 340.124 119.864C340.124 122.484 340.808 125.042 342.109 127.296L340 135L347.88 132.933C350.06 134.12 352.502 134.742 354.984 134.742H354.99C363.183 134.742 369.852 128.072 369.856 119.877C369.862 117.923 369.481 115.988 368.735 114.183C367.988 112.378 366.89 110.738 365.506 109.36C364.129 107.974 362.49 106.874 360.685 106.126C358.88 105.378 356.944 104.995 354.99 105ZM354.99 132.231H354.985C352.769 132.231 350.593 131.634 348.697 130.509L348.246 130.242L343.57 131.468L344.818 126.909L344.524 126.442C343.286 124.472 342.631 122.192 342.634 119.866C342.637 113.053 348.18 107.511 354.996 107.511C358.296 107.512 361.398 108.799 363.73 111.135C364.881 112.281 365.793 113.643 366.413 115.143C367.034 116.643 367.351 118.252 367.346 119.875C367.344 126.688 361.801 132.231 354.99 132.231ZM361.767 122.978C361.397 122.792 359.57 121.893 359.229 121.769C358.889 121.645 358.641 121.583 358.393 121.955C358.146 122.327 357.434 123.164 357.218 123.412C357.001 123.66 356.784 123.691 356.413 123.505C356.042 123.319 354.844 122.925 353.426 121.661C352.322 120.676 351.576 119.459 351.36 119.088C351.144 118.716 351.337 118.515 351.523 118.33C351.69 118.164 351.894 117.896 352.08 117.679C352.266 117.462 352.328 117.307 352.451 117.059C352.575 116.811 352.513 116.594 352.421 116.408C352.327 116.222 351.584 114.393 351.275 113.65C350.973 112.926 350.667 113.023 350.439 113.012C350.202 113.002 349.964 112.997 349.727 112.999C349.48 112.999 349.077 113.092 348.737 113.464C348.396 113.836 347.437 114.734 347.437 116.562C347.437 118.391 348.767 120.157 348.953 120.405C349.139 120.653 351.572 124.405 355.298 126.013C356.184 126.396 356.876 126.624 357.416 126.795C358.306 127.078 359.116 127.038 359.755 126.942C360.468 126.835 361.953 126.044 362.262 125.175C362.572 124.308 362.572 123.565 362.478 123.409C362.385 123.254 362.138 123.161 361.767 122.975V122.978ZM388.066 122.751H388.026L385.561 112.808H382.591L380.086 122.63H380.046L377.763 112.809H374.592L378.41 127.238H381.622L384.026 117.416H384.066L386.511 127.238H389.663L393.542 112.808H390.43L388.066 122.751ZM403.218 117.689C402.935 117.319 402.548 117.029 402.057 116.819C401.565 116.612 400.935 116.508 400.167 116.508C399.629 116.508 399.077 116.645 398.511 116.922C397.945 117.198 397.481 117.639 397.117 118.246H397.056V112.809H394.188V127.237H397.056V121.76C397.056 120.695 397.231 119.931 397.582 119.466C397.932 119.001 398.498 118.769 399.279 118.769C399.965 118.769 400.443 118.981 400.713 119.406C400.983 119.83 401.118 120.473 401.118 121.335V127.235H403.987V120.81C403.987 120.163 403.929 119.574 403.815 119.041C403.7 118.511 403.501 118.06 403.218 117.689ZM415.036 124.913V119.478C415.036 118.843 414.896 118.335 414.612 117.952C414.328 117.567 413.954 117.258 413.522 117.052C413.056 116.83 412.558 116.684 412.046 116.618C411.517 116.545 410.985 116.508 410.451 116.507C409.872 116.507 409.296 116.563 408.724 116.679C408.18 116.783 407.657 116.978 407.178 117.255C406.725 117.521 406.338 117.887 406.048 118.325C405.751 118.77 405.582 119.329 405.542 120.003H408.411C408.465 119.438 408.654 119.033 408.977 118.79C409.3 118.548 409.745 118.427 410.31 118.427C410.566 118.427 410.805 118.444 411.027 118.477C411.249 118.512 411.444 118.577 411.613 118.679C411.781 118.78 411.916 118.922 412.017 119.104C412.118 119.286 412.168 119.532 412.168 119.841C412.181 120.138 412.093 120.362 411.906 120.518C411.716 120.673 411.461 120.792 411.137 120.872C410.772 120.961 410.4 121.021 410.026 121.053C409.608 121.095 409.184 121.15 408.754 121.216C408.322 121.283 407.895 121.374 407.471 121.488C407.067 121.593 406.684 121.768 406.339 122.003C406.009 122.233 405.739 122.539 405.53 122.923C405.322 123.307 405.217 123.797 405.217 124.388C405.217 124.927 405.308 125.392 405.49 125.782C405.672 126.174 405.925 126.496 406.248 126.752C406.571 127.009 406.948 127.198 407.379 127.319C407.809 127.44 408.275 127.501 408.773 127.501C409.417 127.501 410.056 127.406 410.672 127.218C411.287 127.032 411.844 126.69 412.289 126.227C412.314 126.571 412.381 126.91 412.49 127.237H415.4C415.265 127.022 415.17 126.699 415.116 126.267C415.061 125.818 415.035 125.366 415.036 124.913ZM412.168 123.195C412.168 123.358 412.152 123.574 412.118 123.843C412.085 124.113 411.993 124.378 411.845 124.641C411.696 124.904 411.467 125.131 411.157 125.318C410.848 125.508 410.41 125.601 409.844 125.601C409.615 125.601 409.393 125.581 409.177 125.54C408.977 125.505 408.785 125.434 408.611 125.328C408.449 125.226 408.316 125.083 408.227 124.913C408.127 124.713 408.079 124.491 408.086 124.267C408.086 123.998 408.133 123.775 408.227 123.6C408.318 123.429 408.446 123.281 408.602 123.166C408.768 123.046 408.952 122.954 409.147 122.893C409.355 122.826 409.567 122.772 409.784 122.731C410.012 122.691 410.242 122.656 410.47 122.631C410.7 122.604 410.918 122.57 411.127 122.529C411.336 122.489 411.531 122.439 411.714 122.378C411.895 122.317 412.046 122.234 412.168 122.125V123.195ZM420.391 113.658H417.522V116.789H415.785V118.709H417.522V124.873C417.522 125.399 417.61 125.823 417.785 126.146C417.961 126.469 418.2 126.72 418.502 126.894C418.827 127.077 419.184 127.197 419.553 127.247C419.95 127.307 420.372 127.338 420.816 127.338C421.1 127.338 421.389 127.331 421.686 127.319C421.957 127.308 422.227 127.281 422.494 127.238V125.015C422.354 125.043 422.212 125.063 422.069 125.075C421.915 125.09 421.76 125.097 421.605 125.096C421.121 125.096 420.797 125.015 420.635 124.853C420.474 124.691 420.394 124.368 420.394 123.883V118.709H422.495V116.789H420.394V113.657H420.391V113.658ZM432.249 122.661C432.063 122.334 431.808 122.05 431.502 121.831C431.176 121.602 430.819 121.422 430.441 121.296C430.04 121.161 429.632 121.047 429.219 120.953C428.823 120.86 428.425 120.772 428.027 120.69C427.675 120.619 427.328 120.528 426.986 120.418C426.718 120.335 426.468 120.201 426.25 120.023C426.159 119.947 426.086 119.851 426.037 119.743C425.988 119.634 425.964 119.516 425.968 119.397C425.968 119.181 426.02 119.009 426.129 118.882C426.236 118.755 426.371 118.655 426.523 118.588C426.679 118.521 426.849 118.478 427.038 118.457C427.226 118.437 427.402 118.427 427.563 118.427C428.074 118.427 428.519 118.525 428.897 118.72C429.274 118.916 429.483 119.29 429.522 119.841H432.25C432.196 119.195 432.031 118.659 431.755 118.234C431.489 117.82 431.134 117.472 430.715 117.214C430.276 116.949 429.794 116.764 429.29 116.668C428.748 116.56 428.197 116.506 427.645 116.507C427.08 116.507 426.526 116.557 425.989 116.657C425.478 116.748 424.985 116.927 424.534 117.184C424.106 117.43 423.748 117.781 423.493 118.204C423.23 118.634 423.099 119.187 423.099 119.861C423.099 120.319 423.193 120.707 423.383 121.024C423.57 121.341 423.82 121.602 424.128 121.812C424.44 122.02 424.793 122.19 425.19 122.317C425.587 122.447 425.995 122.557 426.412 122.651C427.437 122.867 428.235 123.082 428.807 123.299C429.38 123.514 429.665 123.837 429.665 124.269C429.665 124.525 429.605 124.735 429.484 124.904C429.365 125.071 429.209 125.209 429.029 125.308C428.839 125.412 428.635 125.487 428.423 125.53C428.214 125.576 428 125.6 427.786 125.601C427.503 125.601 427.231 125.567 426.968 125.501C426.718 125.439 426.482 125.333 426.27 125.187C426.067 125.044 425.898 124.857 425.775 124.641C425.642 124.397 425.576 124.121 425.583 123.843H422.856C422.884 124.543 423.041 125.126 423.332 125.591C423.61 126.046 423.99 126.43 424.442 126.713C424.893 126.995 425.409 127.198 425.989 127.319C427.151 127.559 428.35 127.562 429.513 127.329C430.054 127.227 430.571 127.025 431.038 126.733C431.483 126.451 431.853 126.067 432.119 125.612C432.395 125.146 432.533 124.571 432.533 123.883C432.533 123.398 432.439 122.991 432.251 122.662L432.249 122.661ZM437.946 112.808L432.491 127.238H435.683L436.814 124.024H442.208L443.298 127.238H446.592L441.198 112.808H437.946ZM437.643 121.661L439.522 116.366H439.562L441.381 121.661H437.643ZM456.512 118.205C456.118 117.69 455.614 117.269 455.037 116.973C454.445 116.663 453.738 116.508 452.917 116.508C452.27 116.508 451.678 116.635 451.139 116.891C450.599 117.147 450.156 117.558 449.806 118.124H449.765V116.789H447.037V130.896H449.908V125.945H449.947C450.297 126.457 450.746 126.844 451.292 127.105C451.85 127.371 452.462 127.506 453.08 127.5C453.848 127.5 454.518 127.35 455.09 127.055C455.65 126.768 456.14 126.361 456.524 125.862C456.915 125.348 457.207 124.766 457.384 124.145C457.57 123.498 457.666 122.825 457.666 122.124C457.666 121.383 457.57 120.673 457.384 119.991C457.211 119.345 456.915 118.738 456.514 118.203L456.512 118.205ZM454.674 123.277C454.592 123.682 454.454 124.035 454.26 124.337C454.064 124.641 453.809 124.887 453.491 125.076C453.175 125.264 452.781 125.36 452.31 125.36C451.839 125.36 451.462 125.265 451.139 125.076C450.824 124.896 450.557 124.643 450.361 124.338C450.156 124.013 450.013 123.654 449.937 123.277C449.849 122.872 449.805 122.459 449.806 122.045C449.806 121.629 449.845 121.195 449.926 120.792C449.998 120.412 450.139 120.049 450.342 119.72C450.535 119.41 450.792 119.159 451.11 118.963C451.426 118.768 451.819 118.669 452.291 118.669C452.762 118.669 453.137 118.768 453.452 118.963C453.769 119.158 454.029 119.413 454.23 119.731C454.432 120.048 454.576 120.408 454.665 120.811C454.752 121.217 454.796 121.631 454.795 122.046C454.795 122.464 454.755 122.874 454.674 123.276V123.277ZM468.815 119.993C468.643 119.347 468.348 118.74 467.946 118.205C467.552 117.69 467.049 117.269 466.472 116.973C465.879 116.663 465.171 116.508 464.35 116.508C463.704 116.508 463.111 116.635 462.573 116.891C462.034 117.147 461.589 117.558 461.239 118.124H461.2V116.789H458.472V130.896H461.341V125.945H461.382C461.732 126.457 462.18 126.844 462.725 127.105C463.283 127.371 463.895 127.506 464.513 127.5C465.281 127.5 465.95 127.35 466.523 127.055C467.084 126.769 467.573 126.361 467.957 125.862C468.342 125.363 468.627 124.792 468.816 124.145C469.005 123.498 469.099 122.825 469.099 122.124C469.099 121.383 469.005 120.673 468.816 119.991L468.815 119.993ZM466.107 123.277C466.038 123.654 465.898 124.013 465.693 124.337C465.497 124.641 465.242 124.887 464.925 125.076C464.609 125.264 464.215 125.36 463.743 125.36C463.272 125.36 462.895 125.265 462.571 125.076C462.256 124.896 461.989 124.643 461.793 124.338C461.589 124.013 461.445 123.653 461.369 123.277C461.281 122.872 461.237 122.459 461.237 122.045C461.237 121.629 461.278 121.195 461.359 120.792C461.431 120.412 461.571 120.049 461.774 119.72C461.968 119.41 462.225 119.159 462.542 118.963C462.857 118.768 463.252 118.669 463.723 118.669C464.195 118.669 464.568 118.768 464.884 118.963C465.202 119.158 465.461 119.413 465.663 119.731C465.865 120.048 466.011 120.408 466.097 120.811C466.186 121.216 466.229 121.628 466.229 122.046C466.229 122.464 466.188 122.874 466.107 123.276V123.277Z" fill="#25D366"/>
<path d="M686.852 120C686.852 126.55 681.55 131.852 675 131.852V120H686.852ZM675 108.148V120H663.148C663.148 113.45 668.45 108.148 675 108.148Z" fill="#0166B1"/>
<path d="M675 108.148C681.55 108.148 686.852 113.45 686.852 119.998H675V108.148ZM663.148 119.998H675V131.851C668.45 131.851 663.148 126.548 663.148 119.998Z" fill="white"/>
<path d="M675 108.148V108.798C681.176 108.798 686.202 113.823 686.202 120H686.851C686.851 113.455 681.546 108.148 675 108.148ZM675 131.202C668.824 131.202 663.798 126.177 663.798 120H663.148C663.148 126.545 668.454 131.852 675 131.852M675 100C663.955 100 655 108.955 655 120C655 131.045 663.955 140 675 140C686.045 140 695 131.045 695 120C695 108.955 686.045 100 675 100ZM693.7 120C693.7 130.327 685.328 138.7 675 138.7C664.672 138.7 656.3 130.327 656.3 120C656.3 109.673 664.673 101.3 675 101.3C685.327 101.3 693.7 109.673 693.7 120Z" fill="#6F6F6F"/>
<path d="M666.453 110.351C667.093 109.683 667.454 108.911 666.816 108.173C666.468 107.773 665.883 107.686 665.4 107.883L665.351 107.901L665.367 107.859C665.438 107.669 665.484 107.062 664.963 106.644C664.838 106.545 664.694 106.473 664.541 106.43C664.387 106.388 664.227 106.376 664.069 106.396C663.469 106.456 663.007 106.864 661.751 108.256C661.313 108.746 660.891 109.25 660.487 109.767L663.94 113.02C665.084 111.762 665.55 111.296 666.453 110.351ZM661.948 109.556C662.644 108.71 663.382 107.944 663.717 107.641C663.822 107.545 663.937 107.451 664.077 107.412C664.304 107.35 664.537 107.51 664.591 107.742C664.644 107.974 664.497 108.194 664.334 108.376C663.966 108.788 662.617 110.189 662.617 110.189L661.947 109.555L661.948 109.556ZM663.3 110.83C663.3 110.83 664.613 109.45 665.042 109.01C665.212 108.835 665.322 108.729 665.439 108.671C665.591 108.598 665.756 108.583 665.905 108.681C665.974 108.726 666.029 108.791 666.06 108.868C666.091 108.945 666.098 109.03 666.08 109.111C666.037 109.307 665.875 109.495 665.74 109.639L664 111.489L663.3 110.83ZM675.395 106.472L676.5 104.012L676.571 103.794L676.551 104.022L676.667 107.308C677.063 107.346 677.458 107.398 677.85 107.464L677.67 102.596C677.121 102.536 676.57 102.494 676.019 102.469L674.93 105.153L674.892 105.353L674.852 105.153L673.764 102.469C673.214 102.492 672.664 102.535 672.112 102.596L671.932 107.464C672.325 107.399 672.72 107.347 673.116 107.308L673.232 104.022L673.212 103.794L673.282 104.014L674.388 106.472H675.395ZM684.576 111.56C684.848 111.85 685.239 112.316 685.459 112.6L689.504 110.049C689.256 109.729 689.001 109.415 688.739 109.107L686.177 110.789L686.003 110.939L686.133 110.749L687.265 108.507L686.465 107.712L684.205 108.836L684.015 108.965L684.166 108.791L685.862 106.248C685.551 105.986 685.234 105.732 684.911 105.486L682.343 109.5C682.668 109.748 683.097 110.114 683.371 110.362L685.788 109.116L685.944 109.003L685.83 109.156L684.576 111.56Z" fill="#6F6F6F"/>
<path d="M968.579 135.966H967.06V135.193H970.936V135.966H969.417V139.882H968.579V135.966ZM963.274 135.966H961.768V135.193H965.632V135.966H964.126V139.882H963.274V135.966ZM953.975 135.193H953.137V139.883H953.975V135.193ZM949.208 137.302C949.417 137.302 949.587 137.237 949.705 137.106C949.826 136.974 949.892 136.8 949.889 136.621C949.892 136.438 949.827 136.26 949.705 136.123C949.641 136.06 949.565 136.012 949.482 135.98C949.399 135.949 949.31 135.935 949.221 135.94H948.33V137.302H949.208ZM947.518 135.193H949.208C949.483 135.193 949.732 135.233 949.928 135.324C950.101 135.396 950.255 135.505 950.382 135.643C950.509 135.782 950.604 135.945 950.661 136.124C950.714 136.294 950.74 136.451 950.74 136.594C950.74 136.883 950.675 137.158 950.557 137.381C950.424 137.613 950.229 137.804 949.994 137.931L951.028 139.895H950.072L949.168 138.049H948.33V139.895H947.518V135.193ZM943.798 137.302C944.008 137.302 944.178 137.237 944.296 137.106C944.417 136.974 944.483 136.8 944.479 136.621C944.483 136.438 944.417 136.26 944.296 136.123C944.232 136.06 944.156 136.012 944.073 135.98C943.989 135.949 943.9 135.935 943.811 135.94H942.921V137.302H943.798ZM942.096 135.193H943.786C944.06 135.193 944.309 135.233 944.506 135.324C944.702 135.416 944.859 135.521 944.977 135.664C945.095 135.809 945.187 135.953 945.239 136.124C945.306 136.33 945.331 136.547 945.313 136.763C945.295 136.979 945.234 137.189 945.134 137.381C945.001 137.613 944.806 137.804 944.571 137.931L945.606 139.895H944.65L943.746 138.049H942.895V139.895H942.082V135.193H942.096ZM938.769 137.957L938.179 136.137L937.577 137.957H938.769ZM937.76 135.193H938.625L940.315 139.883H939.371L938.978 138.69H937.315L936.922 139.882H936.044L937.76 135.193ZM929.928 135.193H930.714L932.05 137.407L933.373 135.193H934.158L934.368 139.883H933.556L933.399 136.634L932.233 138.546H931.827L930.648 136.673L930.504 139.883H929.718L929.928 135.193ZM958.337 139.175C958.54 139.18 958.742 139.138 958.926 139.051C959.11 138.965 959.272 138.837 959.398 138.677C959.529 138.52 959.62 138.349 959.686 138.14C959.751 137.943 959.791 137.734 959.791 137.511C959.791 137.288 959.751 137.079 959.686 136.869C959.627 136.677 959.529 136.499 959.398 136.346C959.276 136.192 959.118 136.071 958.939 135.992C958.751 135.901 958.545 135.856 958.337 135.861C958.114 135.861 957.918 135.901 957.734 135.991C957.559 136.081 957.405 136.205 957.279 136.356C957.153 136.507 957.059 136.681 957.001 136.869C956.862 137.281 956.862 137.727 957.001 138.139C957.066 138.336 957.158 138.519 957.289 138.677C957.42 138.834 957.564 138.952 957.734 139.044C957.918 139.122 958.114 139.175 958.337 139.175ZM958.337 140C958.009 140 957.708 139.934 957.42 139.803C957.145 139.675 956.896 139.498 956.686 139.279C956.471 139.051 956.303 138.784 956.189 138.493C955.945 137.87 955.945 137.178 956.189 136.555C956.307 136.254 956.477 135.992 956.686 135.769C956.896 135.547 957.132 135.376 957.42 135.245C957.708 135.115 958.009 135.049 958.337 135.049C958.664 135.049 958.965 135.114 959.254 135.245C959.529 135.376 959.777 135.547 959.987 135.769C960.197 135.992 960.367 136.254 960.485 136.555C960.729 137.178 960.729 137.87 960.485 138.493C960.371 138.784 960.202 139.051 959.987 139.279C959.781 139.502 959.531 139.68 959.254 139.803C958.966 139.934 958.653 140.001 958.337 140Z" fill="black"/>
<path d="M952.534 130.504H960.065L947.466 100.484L941.14 103.55L945.54 114.002L943.497 118.862L935.612 100L929.221 102.92L934.355 114.97L934.329 115.023C931.159 122.633 927.282 124.715 926.902 124.859C925.697 125.355 924.385 125.535 923.091 125.383L920 132.011C921.022 132.6 922.174 132.941 923.392 132.941C924.938 132.941 926.352 132.403 927.532 131.513L927.518 131.539C927.518 131.539 930.438 130.059 933.569 121.951C933.569 121.938 934.722 119.358 935.337 117.708L935.403 117.525L940.903 130.517H948.422L944.545 121.375L946.601 116.516L952.534 130.504Z" fill="#A11D2B"/>
</svg>
